<svg width="217" height="229" viewBox="0 0 199 229" fill="none" xmlns="http://www.w3.org/2000/svg">
<g filter="url(#filter0_d)">
<rect x="23.3984" y="19" width="159.872" height="172.026" rx="14.9588" fill="white"/>
<rect x="25.2683" y="20.8698" width="156.132" height="168.286" rx="13.0889" stroke="#007EFA" stroke-opacity="0.3" stroke-width="3.7397"/>
</g>
<rect x="68.4448" y="93.7939" width="101.142" height="6.79945" rx="3.39972" fill="#E3ECFF"/>
<rect x="89.6931" y="117.592" width="36.547" height="6.79945" rx="3.39972" fill="#E3ECFF"/>
<rect x="129.64" y="117.592" width="18.6985" height="6.79945" rx="3.39972" fill="#E3ECFF"/>
<rect x="68.4448" y="141.391" width="33.1473" height="6.79945" rx="3.39972" fill="#E3ECFF"/>
<rect x="105.842" y="141.391" width="28.8977" height="6.79945" rx="3.39972" fill="#E3ECFF"/>
<rect x="138.139" y="141.391" width="31.4474" height="6.79945" rx="3.39972" fill="#E3ECFF"/>
<rect x="68.4448" y="165.188" width="66.2946" height="6.79945" rx="3.39972" fill="#E3ECFF"/>
<path d="M56.5457 61.4971V187.287" stroke="#B3D8FE" stroke-width="3.39972" stroke-linecap="square"/>
<g filter="url(#filter1_d)">
<mask id="path-11-inside-1" fill="white">
<path d="M195.084 41.9479C195.084 41.0091 194.323 40.248 193.384 40.248H10.6492V75.9451H193.384C194.323 75.9451 195.084 75.1841 195.084 74.2453V41.9479Z"/>
</mask>
<path d="M195.084 41.9479C195.084 41.0091 194.323 40.248 193.384 40.248H10.6492V75.9451H193.384C194.323 75.9451 195.084 75.1841 195.084 74.2453V41.9479Z" fill="white"/>
<path d="M195.084 41.9479C195.084 41.0091 194.323 40.248 193.384 40.248H10.6492V75.9451H193.384C194.323 75.9451 195.084 75.1841 195.084 74.2453V41.9479Z" stroke="#CDDDFD" stroke-width="6.79945" mask="url(#path-11-inside-1)"/>
</g>
<g filter="url(#filter2_d)">
<mask id="path-12-inside-2" fill="white">
<rect x="3" y="36.8486" width="135.139" height="41.6466" rx="1.69986"/>
</mask>
<rect x="3" y="36.8486" width="135.139" height="41.6466" rx="1.69986" fill="white"/>
<rect x="3" y="36.8486" width="135.139" height="41.6466" rx="1.69986" stroke="#007EFA" stroke-opacity="0.3" stroke-width="7.47939" mask="url(#path-12-inside-2)"/>
</g>
<path d="M57.2988 60.4204C57.3546 60.4204 57.4103 60.432 57.4661 60.4552C57.5219 60.4738 57.5753 60.5087 57.6264 60.5598L58.5603 61.5425C58.1514 62.0768 57.638 62.481 57.0201 62.7551C56.4067 63.0246 55.6796 63.1594 54.8386 63.1594C54.0673 63.1594 53.375 63.0293 52.7617 62.7691C52.1531 62.5042 51.635 62.1418 51.2076 61.6818C50.7847 61.2172 50.4595 60.669 50.2318 60.0371C50.0042 59.4005 49.8903 58.7105 49.8903 57.9671C49.8903 57.2098 50.0204 56.5152 50.2806 55.8833C50.5408 55.2467 50.9032 54.6985 51.3678 54.2385C51.8371 53.7785 52.397 53.4207 53.0475 53.1652C53.698 52.9096 54.4158 52.7819 55.201 52.7819C55.582 52.7819 55.9398 52.8167 56.2743 52.8864C56.6135 52.9515 56.9295 53.0444 57.2222 53.1652C57.5149 53.2814 57.7844 53.4231 58.0306 53.5903C58.2769 53.7529 58.4953 53.9342 58.6858 54.1339L57.8912 55.2003C57.8401 55.2653 57.7797 55.3257 57.71 55.3815C57.6403 55.4326 57.5428 55.4581 57.4173 55.4581C57.3337 55.4581 57.2547 55.4396 57.1804 55.4024C57.106 55.3652 57.027 55.3211 56.9434 55.27C56.8598 55.2142 56.7668 55.1561 56.6646 55.0957C56.567 55.0307 56.4486 54.9726 56.3092 54.9215C56.1744 54.8657 56.0141 54.8193 55.8283 54.7821C55.6471 54.7449 55.4334 54.7263 55.1871 54.7263C54.7596 54.7263 54.3694 54.803 54.0162 54.9563C53.6631 55.105 53.3588 55.3211 53.1032 55.6045C52.8523 55.8833 52.6549 56.2225 52.5108 56.622C52.3714 57.0216 52.3018 57.47 52.3018 57.9671C52.3018 58.4875 52.3714 58.9498 52.5108 59.3541C52.6549 59.7583 52.8477 60.0998 53.0893 60.3786C53.3356 60.6527 53.6213 60.8618 53.9465 61.0058C54.2718 61.1498 54.6203 61.2219 54.992 61.2219C55.2057 61.2219 55.4008 61.2126 55.5774 61.194C55.7539 61.1708 55.9166 61.1336 56.0652 61.0825C56.2186 61.0314 56.3626 60.9663 56.4974 60.8873C56.6367 60.8037 56.7761 60.7015 56.9155 60.5807C56.9713 60.5342 57.0317 60.497 57.0967 60.4692C57.1618 60.4366 57.2291 60.4204 57.2988 60.4204ZM70.4332 57.9671C70.4332 58.7012 70.3054 59.3843 70.0499 60.0161C69.799 60.648 69.4435 61.1986 68.9835 61.6679C68.5236 62.1325 67.9683 62.4973 67.3178 62.7621C66.672 63.0269 65.9542 63.1594 65.1643 63.1594C64.3744 63.1594 63.6542 63.0269 63.0038 62.7621C62.3533 62.4973 61.7957 62.1325 61.3311 61.6679C60.8711 61.1986 60.5134 60.648 60.2578 60.0161C60.0069 59.3843 59.8815 58.7012 59.8815 57.9671C59.8815 57.233 60.0069 56.55 60.2578 55.9181C60.5134 55.2862 60.8711 54.738 61.3311 54.2733C61.7957 53.8087 62.3533 53.444 63.0038 53.1791C63.6542 52.9143 64.3744 52.7819 65.1643 52.7819C65.9542 52.7819 66.672 52.9166 67.3178 53.1861C67.9683 53.4509 68.5236 53.8157 68.9835 54.2803C69.4435 54.7449 69.799 55.2932 70.0499 55.9251C70.3054 56.557 70.4332 57.2377 70.4332 57.9671ZM68.0218 57.9671C68.0218 57.4653 67.9567 57.0146 67.8266 56.6151C67.6965 56.2108 67.5083 55.8693 67.2621 55.5906C67.0205 55.3118 66.7231 55.098 66.37 54.9494C66.0169 54.8007 65.615 54.7263 65.1643 54.7263C64.709 54.7263 64.3024 54.8007 63.9446 54.9494C63.5915 55.098 63.2918 55.3118 63.0456 55.5906C62.804 55.8693 62.6181 56.2108 62.488 56.6151C62.3579 57.0146 62.2929 57.4653 62.2929 57.9671C62.2929 58.4736 62.3579 58.9289 62.488 59.3331C62.6181 59.7327 62.804 60.0719 63.0456 60.3507C63.2918 60.6295 63.5915 60.8432 63.9446 60.9919C64.3024 61.1359 64.709 61.2079 65.1643 61.2079C65.615 61.2079 66.0169 61.1359 66.37 60.9919C66.7231 60.8432 67.0205 60.6295 67.2621 60.3507C67.5083 60.0719 67.6965 59.7327 67.8266 59.3331C67.9567 58.9289 68.0218 58.4736 68.0218 57.9671ZM81.5475 57.9671C81.5475 58.7012 81.4197 59.3796 81.1642 60.0022C80.9133 60.6202 80.5578 61.1568 80.0978 61.6121C79.6379 62.0628 79.0826 62.416 78.4321 62.6715C77.7863 62.9224 77.0685 63.0479 76.2786 63.0479H72.3339V52.8934H76.2786C77.0685 52.8934 77.7863 53.0212 78.4321 53.2767C79.0826 53.5322 79.6379 53.8854 80.0978 54.3361C80.5578 54.7867 80.9133 55.3234 81.1642 55.946C81.4197 56.564 81.5475 57.2377 81.5475 57.9671ZM79.1361 57.9671C79.1361 57.4653 79.071 57.0123 78.9409 56.6081C78.8108 56.2039 78.6226 55.8624 78.3764 55.5836C78.1348 55.3002 77.8374 55.0841 77.4843 54.9354C77.1312 54.7821 76.7293 54.7054 76.2786 54.7054H74.7035V61.2358H76.2786C76.7293 61.2358 77.1312 61.1615 77.4843 61.0128C77.8374 60.8594 78.1348 60.6434 78.3764 60.3646C78.6226 60.0812 78.8108 59.7374 78.9409 59.3331C79.071 58.9289 79.1361 58.4736 79.1361 57.9671ZM89.9909 52.8934V54.7054H85.8231V57.075H89.0151V58.8174H85.8231V61.2358H89.9909V63.0479H83.4535V52.8934H89.9909Z" fill="#007EFA"/>
<path d="M42.7516 100.445H40.9548V95.531C40.9548 95.3248 40.9588 95.055 40.9667 94.7219C40.9826 94.3887 40.9945 94.0952 41.0024 93.8413C40.9628 93.8889 40.8755 93.9762 40.7406 94.1031C40.6137 94.2221 40.4947 94.3292 40.3837 94.4244L39.408 95.2097L38.5393 94.1269L41.2761 91.9494H42.7516V100.445ZM44.2509 125.445H38.3132V124.196L40.4432 122.042C40.8715 121.598 41.2166 121.229 41.4784 120.936C41.7402 120.634 41.9306 120.364 42.0495 120.126C42.1685 119.881 42.228 119.619 42.228 119.341C42.228 119 42.1328 118.746 41.9425 118.58C41.76 118.413 41.5101 118.33 41.1928 118.33C40.8676 118.33 40.5503 118.405 40.2409 118.556C39.9315 118.706 39.6063 118.921 39.2652 119.198L38.2894 118.044C38.5354 117.83 38.7932 117.632 39.0629 117.449C39.3405 117.267 39.6578 117.12 40.0148 117.009C40.3797 116.89 40.816 116.83 41.3237 116.83C41.879 116.83 42.355 116.934 42.7516 117.14C43.1562 117.338 43.4655 117.612 43.6797 117.961C43.9018 118.302 44.0129 118.691 44.0129 119.127C44.0129 119.595 43.9177 120.023 43.7273 120.412C43.5449 120.801 43.2751 121.185 42.9182 121.566C42.5691 121.947 42.1447 122.367 41.645 122.828L40.5503 123.851V123.934H44.2509V125.445ZM43.9177 143.853C43.9177 144.44 43.7392 144.908 43.3822 145.257C43.0332 145.606 42.6009 145.844 42.0852 145.971V146.007C42.7675 146.086 43.2831 146.293 43.6321 146.626C43.9891 146.959 44.1676 147.407 44.1676 147.97C44.1676 148.462 44.0446 148.906 43.7987 149.303C43.5607 149.692 43.1879 150.001 42.6802 150.231C42.1804 150.453 41.5339 150.564 40.7406 150.564C39.8205 150.564 39.0034 150.41 38.2894 150.1V148.577C38.6544 148.76 39.0351 148.898 39.4318 148.994C39.8363 149.089 40.2092 149.136 40.5503 149.136C41.1928 149.136 41.641 149.025 41.8949 148.803C42.1566 148.581 42.2875 148.268 42.2875 147.863C42.2875 147.625 42.228 147.427 42.109 147.268C41.99 147.102 41.7798 146.979 41.4784 146.899C41.1849 146.812 40.7724 146.769 40.2409 146.769H39.5983V145.388H40.2528C40.7763 145.388 41.173 145.341 41.4427 145.245C41.7203 145.142 41.9068 145.007 42.0019 144.841C42.1051 144.666 42.1566 144.468 42.1566 144.246C42.1566 143.944 42.0614 143.71 41.8711 143.544C41.6886 143.369 41.3792 143.282 40.9429 143.282C40.5384 143.282 40.1854 143.353 39.8839 143.496C39.5904 143.631 39.3405 143.766 39.1343 143.901L38.3013 142.663C38.6345 142.425 39.0232 142.227 39.4675 142.068C39.9196 141.91 40.4551 141.83 41.0738 141.83C41.9464 141.83 42.6366 142.009 43.1443 142.366C43.6599 142.715 43.9177 143.211 43.9177 143.853ZM44.4412 172.684H43.4179V174.445H41.6688V172.684H38.0396V171.435L41.764 165.949H43.4179V171.292H44.4412V172.684ZM41.6688 171.292V169.852C41.6688 169.67 41.6727 169.448 41.6807 169.186C41.6886 168.924 41.6965 168.682 41.7045 168.46C41.7203 168.23 41.7322 168.079 41.7402 168.008H41.6926C41.6212 168.167 41.5458 168.321 41.4665 168.472C41.3872 168.623 41.292 168.777 41.1809 168.936L39.6221 171.292H41.6688Z" fill="#699AF8"/>
<defs>
<filter id="filter0_d" x="0.450298" y="0.301517" width="215.967" height="228.121" filterUnits="userSpaceOnUse" color-interpolation-filters="sRGB">
<feFlood flood-opacity="0" result="BackgroundImageFix"/>
<feColorMatrix in="SourceAlpha" type="matrix" values="0 0 0 0 0 0 0 0 0 0 0 0 0 0 0 0 0 0 127 0"/>
<feOffset dx="5.09959" dy="9.34924"/>
<feGaussianBlur stdDeviation="14.0239"/>
<feColorMatrix type="matrix" values="0 0 0 0 0.17328 0 0 0 0 0.218395 0 0 0 0 0.262794 0 0 0 0.12 0"/>
<feBlend mode="normal" in2="BackgroundImageFix" result="effect1_dropShadow"/>
<feBlend mode="normal" in="SourceGraphic" in2="effect1_dropShadow" result="shape"/>
</filter>
<filter id="filter1_d" x="8.09938" y="39.3981" width="189.535" height="40.7967" filterUnits="userSpaceOnUse" color-interpolation-filters="sRGB">
<feFlood flood-opacity="0" result="BackgroundImageFix"/>
<feColorMatrix in="SourceAlpha" type="matrix" values="0 0 0 0 0 0 0 0 0 0 0 0 0 0 0 0 0 0 127 0"/>
<feOffset dy="1.69986"/>
<feGaussianBlur stdDeviation="1.2749"/>
<feColorMatrix type="matrix" values="0 0 0 0 0 0 0 0 0 0 0 0 0 0 0 0 0 0 0.07 0"/>
<feBlend mode="normal" in2="BackgroundImageFix" result="effect1_dropShadow"/>
<feBlend mode="normal" in="SourceGraphic" in2="effect1_dropShadow" result="shape"/>
</filter>
<filter id="filter2_d" x="0.450207" y="36.8486" width="140.239" height="47.5961" filterUnits="userSpaceOnUse" color-interpolation-filters="sRGB">
<feFlood flood-opacity="0" result="BackgroundImageFix"/>
<feColorMatrix in="SourceAlpha" type="matrix" values="0 0 0 0 0 0 0 0 0 0 0 0 0 0 0 0 0 0 127 0"/>
<feOffset dy="3.39972"/>
<feGaussianBlur stdDeviation="1.2749"/>
<feColorMatrix type="matrix" values="0 0 0 0 0 0 0 0 0 0 0 0 0 0 0 0 0 0 0.07 0"/>
<feBlend mode="normal" in2="BackgroundImageFix" result="effect1_dropShadow"/>
<feBlend mode="normal" in="SourceGraphic" in2="effect1_dropShadow" result="shape"/>
</filter>
</defs>
</svg>
