<svg width="292" height="229" viewBox="0 0 292 198" fill="none" xmlns="http://www.w3.org/2000/svg">
<g filter="url(#filter0_d)">
<rect width="110.218" height="103.101" rx="13.5989" transform="matrix(0.948282 -0.326464 0.292241 0.951899 18.4773 67.9834)" fill="white"/>
<rect x="2.10872" y="1.06315" width="106.818" height="99.7015" rx="11.899" transform="matrix(0.948282 -0.326464 0.292241 0.951899 18.2757 68.723)" stroke="#007EFA" stroke-opacity="0.3" stroke-width="3.39972"/>
</g>
<rect width="89.6229" height="3.76264" rx="1.88132" transform="matrix(0.952226 -0.312571 0.30487 0.947236 49.6096 111.631)" fill="#F3F3F3"/>
<rect width="69.2947" height="3.77247" rx="1.88623" transform="matrix(0.95204 -0.313296 0.304199 0.947501 52.5559 120.688)" fill="#F3F3F3"/>
<rect width="69.2947" height="3.77247" rx="1.88623" transform="matrix(0.95204 -0.313296 0.304199 0.947501 58.4487 138.824)" fill="#F3F3F3"/>
<rect width="76.071" height="3.76869" rx="1.88435" transform="matrix(0.952111 -0.313019 0.304455 0.9474 55.5024 129.761)" fill="#F3F3F3"/>
<rect width="89.606" height="3.77579" rx="1.8879" transform="matrix(0.952355 -0.312491 0.305017 0.947276 37.4033 74.0518)" fill="#F3F3F3"/>
<rect width="69.2802" height="3.78527" rx="1.89264" transform="matrix(0.952174 -0.313186 0.304372 0.947529 40.3496 83.1094)" fill="#F3F3F3"/>
<rect width="76.0556" height="3.78162" rx="1.89081" transform="matrix(0.952244 -0.312919 0.30462 0.947432 43.2959 92.1807)" fill="#F3F3F3"/>
<g filter="url(#filter1_d)">
<rect width="107.481" height="106.313" rx="13.5989" transform="matrix(0.991832 0.0817116 -0.0875387 1.00068 156.758 24.7666)" fill="white"/>
<rect x="1.53717" y="1.83992" width="104.081" height="102.913" rx="11.899" transform="matrix(0.991832 0.0817116 -0.0875387 1.00068 156.932 24.6397)" stroke="#007EFA" stroke-opacity="0.3" stroke-width="3.39972"/>
</g>
<rect width="90.0347" height="4.18747" rx="2.03983" transform="matrix(0.991502 0.085409 -0.0852719 1.00085 154.976 77.5791)" fill="#F3F3F3"/>
<rect width="69.5707" height="4.17624" rx="2.03983" transform="matrix(0.991522 0.0851806 -0.085501 1.00083 154.144 87.0762)" fill="#F3F3F3"/>
<rect width="69.5707" height="4.17624" rx="2.03983" transform="matrix(0.991522 0.0851806 -0.085501 1.00083 152.482 106.073)" fill="#F3F3F3"/>
<rect width="76.392" height="4.18039" rx="2.03983" transform="matrix(0.991515 0.085265 -0.0854162 1.00084 153.313 96.5752)" fill="#F3F3F3"/>
<rect width="90.0397" height="4.16851" rx="2.03983" transform="matrix(0.991475 0.0856159 -0.0850578 1.00086 154.141 38.0391)" fill="#F3F3F3"/>
<rect width="69.5753" height="4.15905" rx="2.03983" transform="matrix(0.991492 0.0854215 -0.0852517 1.00084 153.311 47.5371)" fill="#F3F3F3"/>
<rect width="76.3968" height="4.16251" rx="2.03983" transform="matrix(0.991486 0.0854925 -0.0851807 1.00085 152.479 57.0361)" fill="#F3F3F3"/>
<g filter="url(#filter2_d)">
<rect width="137.852" height="128.788" rx="13.5989" transform="matrix(0.987146 -0.160664 0.120536 0.992829 69.1272 37.5029)" fill="white"/>
<rect x="1.88291" y="1.41457" width="134.452" height="125.388" rx="11.899" transform="matrix(0.987146 -0.160664 0.120536 0.992829 68.9809 37.8156)" stroke="#007EFA" stroke-opacity="0.3" stroke-width="3.39972"/>
<path d="M97.726 62.0431L95.3862 62.4178L94.8606 58.1569L90.7866 58.8093L91.3123 63.0702L88.9725 63.4448L87.7292 53.3667L90.069 52.992L90.5887 57.2045L94.6626 56.5521L94.143 52.3396L96.4828 51.965L97.726 62.0431ZM105.352 50.5447L105.574 52.3432L101.459 53.0021L101.749 55.3539L104.901 54.8493L105.114 56.5785L101.962 57.0832L102.258 59.4834L106.373 58.8245L106.595 60.6229L100.14 61.6566L98.8971 51.5784L105.352 50.5447ZM110.783 58.0479L114.499 57.4528L114.729 59.3204L108.687 60.288L107.444 50.2098L109.77 49.8373L110.783 58.0479ZM118.685 56.7826L122.401 56.1875L122.631 58.0552L116.589 59.0227L115.346 48.9445L117.672 48.572L118.685 56.7826ZM133.213 51.2185C133.303 51.9471 133.261 52.6451 133.086 53.3127C132.915 53.9795 132.632 54.5822 132.235 55.1206C131.838 55.6545 131.334 56.1043 130.724 56.47C130.119 56.835 129.426 57.0799 128.646 57.2048C127.867 57.3297 127.139 57.3121 126.465 57.1521C125.79 56.9921 125.195 56.7183 124.679 56.3306C124.167 55.9376 123.747 55.4477 123.417 54.8609C123.092 54.2735 122.884 53.6154 122.794 52.8868C122.705 52.1582 122.745 51.4605 122.915 50.7937C123.09 50.1261 123.376 49.5254 123.774 48.9916C124.176 48.457 124.681 48.0068 125.291 47.6411C125.901 47.2754 126.596 47.0301 127.376 46.9052C128.156 46.7803 128.881 46.8006 129.552 46.9659C130.227 47.1259 130.819 47.4001 131.331 47.7885C131.842 48.1769 132.26 48.6649 132.585 49.2524C132.915 49.8391 133.124 50.4945 133.213 51.2185ZM130.832 51.5997C130.771 51.1017 130.651 50.6647 130.474 50.2887C130.296 49.9081 130.068 49.5989 129.791 49.3611C129.519 49.1226 129.199 48.9575 128.832 48.8658C128.465 48.7741 128.059 48.7638 127.614 48.8351C127.164 48.9071 126.772 49.0452 126.437 49.2493C126.107 49.4527 125.837 49.7122 125.628 50.0278C125.423 50.3427 125.282 50.711 125.203 51.1328C125.123 51.5499 125.114 52.0075 125.176 52.5055C125.238 53.0082 125.358 53.4498 125.535 53.8304C125.713 54.2064 125.938 54.5137 126.211 54.7522C126.488 54.9899 126.81 55.1547 127.177 55.2464C127.548 55.3328 127.958 55.34 128.408 55.268C128.853 55.1967 129.241 55.0617 129.572 54.8629C129.902 54.6595 130.17 54.4004 130.374 54.0855C130.583 53.7699 130.727 53.4035 130.807 52.9863C130.886 52.5646 130.894 52.1024 130.832 51.5997ZM89.4209 73.3376L91.3753 73.0247C91.5772 72.9923 91.7503 73.0116 91.8947 73.0826C92.0437 73.1528 92.1483 73.2606 92.2083 73.4062L94.2332 78.4428C94.3001 78.6061 94.3685 78.7809 94.4382 78.9672C94.508 79.1535 94.5674 79.3509 94.6165 79.5594C94.6357 79.3353 94.6611 79.1243 94.6929 78.9264C94.724 78.7239 94.7543 78.5333 94.7837 78.3546L95.7593 72.8376C95.7847 72.7019 95.8576 72.5726 95.9781 72.4499C96.1027 72.3218 96.2613 72.2423 96.454 72.2114L97.1422 72.1012C97.344 72.0689 97.5149 72.0886 97.6547 72.1602C97.7986 72.2265 97.9054 72.3341 97.9752 72.4828L100.234 77.4819C100.304 77.6352 100.378 77.7997 100.456 77.9753C100.534 78.1463 100.606 78.3323 100.672 78.5332C100.684 78.3244 100.697 78.1249 100.711 77.9345C100.729 77.7435 100.749 77.5639 100.771 77.3959L101.499 71.9186C101.519 71.7789 101.592 71.6474 101.717 71.5239C101.842 71.4004 102.001 71.3232 102.193 71.2924L104.024 70.9993L102.17 81.5733L100.065 81.9105L97.4084 75.9663C97.3644 75.8747 97.3169 75.7741 97.266 75.6647C97.2196 75.5546 97.1724 75.4375 97.1244 75.3135C97.1082 75.4478 97.0889 75.5755 97.0664 75.6966C97.0485 75.8171 97.0295 75.9283 97.0093 76.0303L95.8667 82.5827L93.7609 82.9199L89.4209 73.3376ZM116.204 74.184C116.294 74.9126 116.252 75.6106 116.077 76.2782C115.906 76.945 115.623 77.5477 115.226 78.0861C114.829 78.62 114.325 79.0698 113.715 79.4355C113.11 79.8005 112.417 80.0454 111.637 80.1703C110.857 80.2952 110.13 80.2776 109.455 80.1176C108.781 79.9576 108.185 79.6838 107.67 79.2961C107.158 78.9031 106.737 78.4132 106.408 77.8264C106.083 77.239 105.875 76.5809 105.785 75.8523C105.695 75.1237 105.736 74.426 105.906 73.7592C106.081 73.0916 106.367 72.4909 106.764 71.9571C107.166 71.4225 107.672 70.9723 108.282 70.6066C108.892 70.2409 109.587 69.9956 110.367 69.8707C111.147 69.7458 111.872 69.7661 112.543 69.9314C113.217 70.0914 113.81 70.3656 114.321 70.754C114.832 71.1424 115.251 71.6304 115.576 72.2179C115.905 72.8046 116.115 73.46 116.204 74.184ZM113.823 74.5652C113.762 74.0672 113.642 73.6302 113.465 73.2542C113.287 72.8736 113.059 72.5644 112.782 72.3266C112.509 72.0882 112.19 71.923 111.823 71.8313C111.456 71.7396 111.05 71.7293 110.605 71.8006C110.155 71.8726 109.763 72.0107 109.428 72.2148C109.097 72.4182 108.828 72.6777 108.619 72.9933C108.414 73.3082 108.272 73.6765 108.194 74.0983C108.114 74.5154 108.105 74.973 108.166 75.471C108.228 75.9737 108.348 76.4153 108.526 76.7959C108.704 77.172 108.929 77.4792 109.201 77.7177C109.479 77.9554 109.801 78.1202 110.168 78.2119C110.539 78.2983 110.949 78.3055 111.398 78.2335C111.843 78.1622 112.231 78.0272 112.562 77.8284C112.893 77.625 113.16 77.3659 113.365 77.051C113.574 76.7354 113.718 76.369 113.798 75.9518C113.877 75.5301 113.885 75.0679 113.823 74.5652ZM120.569 74.8252L121.029 78.5535L118.703 78.926L117.46 68.8478L120.722 68.3255C121.447 68.2094 122.073 68.1867 122.601 68.2573C123.133 68.3226 123.576 68.4633 123.93 68.6793C124.289 68.8946 124.564 69.1726 124.756 69.5134C124.948 69.8542 125.07 70.2391 125.123 70.6679C125.163 70.9953 125.158 71.3113 125.107 71.6157C125.055 71.9202 124.958 72.2109 124.814 72.4878C124.675 72.7594 124.491 73.0123 124.262 73.2464C124.038 73.4797 123.771 73.6847 123.461 73.8614C123.626 73.9148 123.783 73.9885 123.93 74.0825C124.082 74.1757 124.219 74.2973 124.34 74.4471L126.906 77.6125L124.8 77.9497C124.41 78.0121 124.112 77.9094 123.906 77.6414L121.88 74.9822C121.79 74.8648 121.692 74.7865 121.584 74.7473C121.481 74.7074 121.34 74.7018 121.161 74.7305L120.569 74.8252ZM120.37 73.2135L121.306 73.0637C121.623 73.013 121.886 72.9308 122.097 72.8172C122.311 72.6982 122.481 72.5558 122.606 72.3901C122.73 72.2243 122.813 72.0418 122.854 71.8425C122.894 71.6385 122.901 71.4258 122.873 71.2045C122.819 70.7618 122.632 70.4391 122.312 70.2363C121.997 70.0329 121.539 69.9793 120.938 70.0755L120.002 70.2254L120.37 73.2135ZM130.716 75.0978L134.433 74.5027L134.663 76.3704L128.621 77.3379L127.378 67.2597L129.704 66.8872L130.716 75.0978ZM144.998 69.5732C145.088 70.3018 145.045 70.9953 144.869 71.6536C144.697 72.3066 144.411 72.8954 144.013 73.4201C143.614 73.9401 143.109 74.3784 142.498 74.7348C141.891 75.086 141.198 75.324 140.418 75.4489L136.523 76.0726L135.279 65.9944L139.174 65.3707C139.954 65.2458 140.679 65.2591 141.348 65.4106C142.021 65.5614 142.613 65.8241 143.122 66.1987C143.632 66.5732 144.048 67.0496 144.372 67.6279C144.7 68.2008 144.909 68.8493 144.998 69.5732ZM142.617 69.9545C142.556 69.4565 142.436 69.0172 142.258 68.6365C142.08 68.2559 141.852 67.9467 141.575 67.709C141.302 67.4659 140.982 67.2985 140.615 67.2068C140.247 67.1104 139.841 67.0979 139.396 67.1691L137.841 67.4182L138.64 73.8995L140.196 73.6504C140.641 73.5792 141.028 73.4418 141.359 73.2384C141.689 73.0304 141.956 72.769 142.16 72.4541C142.369 72.1339 142.513 71.7629 142.592 71.3411C142.671 70.9194 142.679 70.4572 142.617 69.9545ZM149.039 63.7911L149.527 67.7476C149.58 68.1719 149.606 68.5979 149.608 69.0256C149.608 69.4487 149.594 69.8836 149.565 70.3303L148.12 70.5617C147.984 70.1414 147.865 69.7278 147.763 69.3209C147.661 68.9093 147.584 68.4914 147.532 68.0672L147.043 64.1106L149.039 63.7911ZM147.919 73.1403C147.898 72.9743 147.909 72.815 147.951 72.6625C147.998 72.5093 148.067 72.3712 148.16 72.2482C148.257 72.1245 148.375 72.021 148.514 71.9375C148.653 71.8494 148.81 71.7914 148.984 71.7635C149.154 71.7363 149.316 71.7433 149.471 71.7843C149.625 71.8208 149.764 71.8832 149.887 71.9716C150.01 72.0601 150.11 72.171 150.188 72.3044C150.269 72.4371 150.321 72.5864 150.341 72.7524C150.362 72.9184 150.349 73.0803 150.303 73.2382C150.261 73.3907 150.191 73.5288 150.094 73.6525C149.997 73.7762 149.879 73.8798 149.74 73.9632C149.6 74.0467 149.446 74.102 149.276 74.1292C149.102 74.1571 148.937 74.1528 148.783 74.1164C148.629 74.0799 148.49 74.0175 148.367 73.9291C148.248 73.8399 148.148 73.729 148.066 73.5963C147.988 73.4583 147.939 73.3063 147.919 73.1403Z" fill="#007EFA"/>
</g>
<rect width="101.381" height="4.52024" rx="2.26012" transform="matrix(0.988975 -0.144492 0.133723 0.99058 95.3276 99.582)" fill="#F3F3F3"/>
<rect width="78.411" height="4.55626" rx="2.27813" transform="matrix(0.988862 -0.14562 0.132718 0.990763 96.9158 110.697)" fill="#F3F3F3"/>
<rect width="78.411" height="4.55626" rx="2.27813" transform="matrix(0.988862 -0.14562 0.132718 0.990763 100.315 132.795)" fill="#F3F3F3"/>
<rect width="48.6326" height="4.63423" rx="2.31711" transform="matrix(0.988617 -0.148033 0.130616 0.991142 98.6531 121.35)" fill="#F3F3F3"/>
<rect width="86.0677" height="4.54268" rx="2.27134" transform="matrix(0.988905 -0.145195 0.133095 0.990694 101.203 143.541)" fill="#F3F3F3"/>
<path d="M216.233 148.193C218.905 147.796 221.531 149.563 221.853 151.976C221.955 152.741 224.326 170.793 222.536 175.865C220.675 181.138 218.042 186.407 208.269 187.859C198.829 189.262 193.498 185.336 187.325 180.792L186.266 180.014C179.759 175.252 175.139 171.462 175.092 171.424C172.349 169.419 171.832 165.488 173.99 162.702C175.033 161.353 176.535 160.473 178.215 160.223C179.896 159.973 181.568 160.382 182.923 161.375L187.987 165.275L183.675 133.406C183.239 130.123 185.124 127.416 188.156 126.965C191.174 126.517 193.505 128.49 193.955 131.876L195.768 145.516C196.785 144.568 198.125 143.956 199.48 143.755C201.809 143.409 203.992 144.555 205.024 146.459C205.858 145.573 206.993 144.948 208.293 144.755C211.141 144.331 213.771 146.14 214.343 148.835C215.132 148.464 215.918 148.24 216.233 148.193Z" fill="white"/>
<path fill-rule="evenodd" clip-rule="evenodd" d="M214.515 148.74C215.311 148.364 216.103 148.134 216.42 148.085C219.113 147.669 221.743 149.407 222.051 151.806C222.148 152.566 224.411 170.513 222.576 175.575C220.667 180.838 217.98 186.103 208.134 187.626C198.626 189.097 193.288 185.235 187.107 180.762L187.104 180.76L186.043 179.994C179.527 175.307 174.903 171.572 174.857 171.534C172.109 169.56 171.616 165.652 173.807 162.862C174.866 161.511 176.383 160.623 178.076 160.361C179.769 160.099 181.45 160.493 182.807 161.47L187.876 165.311L183.755 133.628C183.338 130.365 185.253 127.655 188.308 127.183C191.349 126.712 193.681 128.658 194.111 132.024L195.842 145.585C196.872 144.633 198.225 144.013 199.59 143.802C201.937 143.439 204.126 144.563 205.151 146.449C205.997 145.561 207.143 144.929 208.453 144.727C211.323 144.283 213.957 146.061 214.515 148.74ZM207.849 185.383C216.382 184.063 218.564 179.853 220.361 174.897C221.732 171.118 220.362 157.207 219.717 152.164C219.569 151.006 218.11 150.117 216.714 150.333C216.163 150.418 215.283 150.851 214.843 151.142L215.209 154.01C215.289 154.631 214.829 155.216 214.183 155.316C213.538 155.416 212.949 154.993 212.87 154.371L212.247 149.493C212.035 147.837 210.464 146.707 208.744 146.973C207.023 147.239 205.796 148.802 206.008 150.458L206.247 152.334C206.326 152.956 205.867 153.541 205.221 153.641C204.575 153.741 203.987 153.317 203.907 152.696L203.38 148.568C203.169 146.912 201.598 145.782 199.877 146.048C198.31 146.291 196.093 147.55 196.409 150.029L196.793 153.031C196.872 153.653 196.412 154.238 195.766 154.338C195.121 154.438 194.532 154.014 194.453 153.393L191.769 132.377C191.668 131.585 191.141 129.03 188.592 129.424C186.425 129.759 185.889 131.698 186.088 133.256L190.578 167.767C190.638 168.228 190.401 168.688 189.978 168.928C189.558 169.169 189.035 169.141 188.661 168.859L181.326 163.302C180.487 162.699 179.425 162.448 178.355 162.613C177.286 162.779 176.327 163.342 175.654 164.199C174.981 165.057 174.682 166.105 174.812 167.15C174.943 168.194 175.489 169.109 176.348 169.728C176.353 169.732 176.371 169.746 176.402 169.771C176.938 170.2 181.37 173.751 187.489 178.153L188.555 178.922C194.563 183.27 199.309 186.704 207.849 185.383Z" fill="#007EFA"/>
<path d="M196.443 116.813C196.34 116.048 195.477 115.395 194.716 115.508C187.107 114.133 179.612 115.055 172.258 118.823L171.938 116.433C171.876 115.969 171.352 115.62 170.901 115.505C170.45 115.39 169.782 115.589 169.499 115.965L166.308 120.774C165.922 121.289 166.007 121.922 166.513 122.304L170.842 126.003C171.212 126.283 171.907 126.281 172.31 126.04C172.713 125.799 173.126 125.311 173.064 124.848L172.667 121.883C180.562 117.66 187.914 117.577 195.125 118.568C195.886 118.455 196.545 117.578 196.443 116.813Z" fill="#007EFA" fill-opacity="0.699246"/>
<path d="M175.018 106.552C174.972 105.802 175.699 104.991 176.472 104.93C183.721 101.947 191.3 101.173 199.287 103.14L199.143 100.795C199.115 100.34 199.565 99.8921 199.988 99.6832C200.411 99.4743 201.109 99.5168 201.461 99.8127L205.538 103.687C206.018 104.091 206.056 104.712 205.63 105.188L202.067 109.661C201.755 110.009 201.069 110.16 200.625 110.019C200.18 109.878 199.679 109.505 199.651 109.05L199.472 106.142C190.862 103.861 183.587 105.401 176.657 107.932C175.884 107.993 175.064 107.303 175.018 106.552Z" fill="#007EFA" fill-opacity="0.699246"/>
<defs>
<filter id="filter0_d" x="0.60109" y="18.6986" width="178.9" height="177.729" filterUnits="userSpaceOnUse" color-interpolation-filters="sRGB">
<feFlood flood-opacity="0" result="BackgroundImageFix"/>
<feColorMatrix in="SourceAlpha" type="matrix" values="0 0 0 0 0 0 0 0 0 0 0 0 0 0 0 0 0 0 127 0"/>
<feOffset dx="4.24966" dy="8.49931"/>
<feGaussianBlur stdDeviation="12.749"/>
<feColorMatrix type="matrix" values="0 0 0 0 0.17328 0 0 0 0 0.218395 0 0 0 0 0.262794 0 0 0 0.12 0"/>
<feBlend mode="normal" in2="BackgroundImageFix" result="effect1_dropShadow"/>
<feBlend mode="normal" in="SourceGraphic" in2="effect1_dropShadow" result="shape"/>
</filter>
<filter id="filter1_d" x="127.341" y="8.83341" width="164.631" height="164.033" filterUnits="userSpaceOnUse" color-interpolation-filters="sRGB">
<feFlood flood-opacity="0" result="BackgroundImageFix"/>
<feColorMatrix in="SourceAlpha" type="matrix" values="0 0 0 0 0 0 0 0 0 0 0 0 0 0 0 0 0 0 127 0"/>
<feOffset dx="4.24966" dy="8.49931"/>
<feGaussianBlur stdDeviation="12.749"/>
<feColorMatrix type="matrix" values="0 0 0 0 0.17328 0 0 0 0 0.218395 0 0 0 0 0.262794 0 0 0 0.12 0"/>
<feBlend mode="normal" in2="BackgroundImageFix" result="effect1_dropShadow"/>
<feBlend mode="normal" in="SourceGraphic" in2="effect1_dropShadow" result="shape"/>
</filter>
<filter id="filter2_d" x="49.417" y="0.363686" width="199.523" height="196.994" filterUnits="userSpaceOnUse" color-interpolation-filters="sRGB">
<feFlood flood-opacity="0" result="BackgroundImageFix"/>
<feColorMatrix in="SourceAlpha" type="matrix" values="0 0 0 0 0 0 0 0 0 0 0 0 0 0 0 0 0 0 127 0"/>
<feOffset dx="4.24966" dy="8.49931"/>
<feGaussianBlur stdDeviation="12.749"/>
<feColorMatrix type="matrix" values="0 0 0 0 0.17328 0 0 0 0 0.218395 0 0 0 0 0.262794 0 0 0 0.12 0"/>
<feBlend mode="normal" in2="BackgroundImageFix" result="effect1_dropShadow"/>
<feBlend mode="normal" in="SourceGraphic" in2="effect1_dropShadow" result="shape"/>
</filter>
</defs>
</svg>
