<svg width="221" height="229" viewBox="0 0 210 229" fill="none" xmlns="http://www.w3.org/2000/svg">
<g filter="url(#filter0_d)">
<rect x="27.3425" y="19.1201" width="159.872" height="172.026" rx="14.9588" fill="white"/>
<rect x="29.2124" y="20.99" width="156.132" height="168.286" rx="13.0889" stroke="#007EFA" stroke-opacity="0.3" stroke-width="3.7397"/>
<g opacity="0.01">
<rect x="31.8047" y="22.8594" width="152.138" height="164.547" rx="11.899" fill="white"/>
<rect x="33.6745" y="24.7292" width="148.398" height="160.807" rx="10.0292" stroke="#007EFA" stroke-opacity="0.175481" stroke-width="3.7397"/>
</g>
<mask id="mask0" mask-type="alpha" maskUnits="userSpaceOnUse" x="31" y="22" width="153" height="166">
<rect x="31.8047" y="22.8594" width="152.138" height="164.547" rx="11.899" fill="white"/>
<rect x="33.6745" y="24.7292" width="148.398" height="160.807" rx="10.0292" stroke="white" stroke-width="3.7397"/>
</mask>
<g mask="url(#mask0)">
<path fill-rule="evenodd" clip-rule="evenodd" d="M36.9467 182.645C42.5796 182.645 47.1459 178.079 47.1459 172.446C47.1459 166.813 42.5796 162.247 36.9467 162.247C31.3139 162.247 26.7476 166.813 26.7476 172.446C26.7476 178.079 31.3139 182.645 36.9467 182.645Z" fill="#80A9FE" fill-opacity="0.22526"/>
<rect x="29.7224" y="132.5" width="159.362" height="25.9229" fill="white"/>
<rect x="53.0955" y="146.099" width="101.142" height="5.09959" rx="2.54979" fill="#E3ECFF"/>
<rect x="53.0955" y="169.897" width="78.1937" height="5.09959" rx="2.54979" fill="#E3ECFF"/>
<path fill-rule="evenodd" clip-rule="evenodd" d="M36.9467 158.849C42.5796 158.849 47.1459 154.282 47.1459 148.649C47.1459 143.017 42.5796 138.45 36.9467 138.45C31.3139 138.45 26.7476 143.017 26.7476 148.649C26.7476 154.282 31.3139 158.849 36.9467 158.849Z" fill="#80A9FE" fill-opacity="0.22526"/>
</g>
<path d="M52.9651 34.8046V36.5061H49.0515V38.7312H52.0488V40.3674H49.0515V42.6383H52.9651V44.3398H46.8264V34.8046H52.9651ZM57.3039 39.438L54.3523 34.8046H56.5643C56.7083 34.8046 56.813 34.8242 56.8785 34.8635C56.9483 34.8984 57.0094 34.9594 57.0617 35.0467L58.9596 38.26C58.9814 38.2033 59.0054 38.1488 59.0316 38.0964C59.0621 38.0441 59.0949 37.9895 59.1298 37.9328L60.7921 35.0794C60.9011 34.8962 61.0495 34.8046 61.2371 34.8046L63.3575 34.8046L60.3667 39.3399L63.4229 44.3398H61.2109C61.0669 44.3398 60.9491 44.3049 60.8575 44.2351C60.7702 44.1653 60.7004 44.0824 60.6481 43.9864L58.7371 40.6488C58.7022 40.7447 58.6629 40.8276 58.6193 40.8975L56.8392 43.9864C56.7868 44.0781 56.717 44.161 56.6298 44.2351C56.5425 44.3049 56.4334 44.3398 56.3025 44.3398H54.2345L57.3039 39.438ZM73.8741 44.3398H72.1594C71.9674 44.3398 71.8082 44.2962 71.6817 44.209C71.5595 44.1173 71.4744 44.0017 71.4264 43.8621L70.8636 42.1998H67.238L66.6751 43.8621C66.6315 43.9843 66.5464 44.0955 66.4199 44.1959C66.2934 44.2919 66.1385 44.3398 65.9552 44.3398H64.2275L67.9186 34.8046H70.183L73.8741 44.3398ZM67.7484 40.6946H70.3531L69.4762 38.0833C69.4195 37.9175 69.3518 37.7234 69.2733 37.5009C69.1991 37.274 69.1249 37.0297 69.0508 36.7679C68.981 37.034 68.909 37.2805 68.8348 37.5074C68.7606 37.7343 68.6908 37.9306 68.6254 38.0964L67.7484 40.6946ZM80.2531 39.9812C80.3403 40.147 80.4232 40.3194 80.5018 40.4982C80.5847 40.6771 80.6632 40.8604 80.7374 41.048C80.8115 40.856 80.8901 40.6706 80.973 40.4917C81.0559 40.3085 81.1409 40.1317 81.2282 39.9616L83.6758 35.1449C83.7195 35.062 83.7631 34.9987 83.8067 34.9551C83.8547 34.9071 83.9071 34.8722 83.9638 34.8504C84.0205 34.8285 84.0838 34.8155 84.1536 34.8111C84.2278 34.8067 84.3128 34.8046 84.4088 34.8046H86.0973V44.3398L84.147 44.3398V38.8556C84.147 38.5894 84.1601 38.3015 84.1863 37.9917L81.6601 42.8935C81.5816 43.0462 81.4747 43.1618 81.3395 43.2404C81.2086 43.3189 81.058 43.3582 80.8879 43.3582H80.5868C80.4167 43.3582 80.264 43.3189 80.1287 43.2404C79.9978 43.1618 79.8931 43.0462 79.8146 42.8935L77.2753 37.9852C77.2928 38.1379 77.3059 38.2906 77.3146 38.4433C77.3233 38.5916 77.3277 38.7291 77.3277 38.8556V44.3398H75.3774V34.8046H77.0659C77.1619 34.8046 77.2448 34.8067 77.3146 34.8111C77.3888 34.8155 77.4542 34.8285 77.5109 34.8504C77.5677 34.8722 77.6178 34.9071 77.6615 34.9551C77.7095 34.9987 77.7553 35.062 77.7989 35.1449L80.2531 39.9812ZM90.6131 41.1527V44.3398H88.4011V34.8046H91.7649C92.4368 34.8046 93.0127 34.8853 93.4927 35.0467C93.9769 35.2038 94.374 35.4219 94.6837 35.7011C94.9979 35.9804 95.2291 36.3098 95.3775 36.6894C95.5258 37.0689 95.6 37.4791 95.6 37.9197C95.6 38.3953 95.5236 38.8316 95.3709 39.2286C95.2182 39.6256 94.9848 39.966 94.6707 40.2496C94.3565 40.5331 93.9573 40.7557 93.473 40.9171C92.9931 41.0742 92.4237 41.1527 91.7649 41.1527H90.6131ZM90.6131 39.4838H91.7649C92.3408 39.4838 92.7553 39.3464 93.0084 39.0715C93.2614 38.7967 93.3879 38.4127 93.3879 37.9197C93.3879 37.7016 93.3552 37.5031 93.2898 37.3242C93.2243 37.1453 93.124 36.9926 92.9887 36.8661C92.8578 36.7352 92.6899 36.6348 92.4848 36.565C92.2841 36.4952 92.0441 36.4603 91.7649 36.4603H90.6131V39.4838ZM99.687 42.5728H103.221V44.3398H97.475V34.8046H99.687V42.5728ZM111.128 34.8046V36.5061H107.215V38.7312H110.212V40.3674H107.215V42.6383H111.128V44.3398H104.989V34.8046H111.128ZM118.432 36.7417C118.366 36.8464 118.296 36.925 118.222 36.9773C118.152 37.0297 118.061 37.0558 117.947 37.0558C117.847 37.0558 117.738 37.0253 117.62 36.9642C117.507 36.8988 117.376 36.8268 117.227 36.7483C117.083 36.6697 116.918 36.5999 116.73 36.5388C116.542 36.4734 116.329 36.4407 116.089 36.4407C115.674 36.4407 115.364 36.5301 115.159 36.709C114.959 36.8835 114.858 37.1213 114.858 37.4223C114.858 37.6143 114.919 37.7736 115.042 37.9001C115.164 38.0266 115.323 38.1357 115.519 38.2273C115.72 38.3189 115.947 38.404 116.2 38.4825C116.457 38.5567 116.719 38.6418 116.985 38.7378C117.251 38.8294 117.511 38.9385 117.764 39.065C118.021 39.1915 118.248 39.353 118.445 39.5493C118.645 39.7456 118.807 39.9856 118.929 40.2692C119.051 40.5484 119.112 40.8865 119.112 41.2836C119.112 41.7242 119.036 42.1365 118.883 42.5205C118.73 42.9044 118.508 43.2404 118.216 43.5283C117.928 43.8119 117.57 44.0366 117.142 44.2024C116.719 44.3638 116.237 44.4446 115.696 44.4446C115.399 44.4446 115.096 44.414 114.786 44.3529C114.481 44.2919 114.184 44.2068 113.896 44.0977C113.608 43.9843 113.338 43.8512 113.085 43.6985C112.832 43.5458 112.611 43.3756 112.424 43.188L113.078 42.154C113.126 42.0755 113.194 42.0122 113.281 41.9642C113.368 41.9162 113.462 41.8922 113.563 41.8922C113.693 41.8922 113.824 41.9337 113.955 42.0166C114.09 42.0995 114.241 42.1911 114.407 42.2914C114.577 42.3918 114.771 42.4834 114.989 42.5663C115.207 42.6492 115.465 42.6906 115.761 42.6906C116.163 42.6906 116.475 42.6034 116.697 42.4289C116.92 42.25 117.031 41.9686 117.031 41.5846C117.031 41.3621 116.97 41.181 116.848 41.0414C116.726 40.9018 116.564 40.7862 116.364 40.6946C116.167 40.603 115.943 40.5222 115.689 40.4524C115.436 40.3826 115.177 40.3063 114.911 40.2234C114.645 40.1361 114.385 40.0314 114.132 39.9092C113.879 39.7827 113.652 39.6191 113.451 39.4184C113.255 39.2133 113.096 38.9603 112.974 38.6592C112.851 38.3538 112.79 37.9786 112.79 37.5336C112.79 37.1758 112.862 36.8268 113.006 36.4865C113.15 36.1462 113.362 35.8429 113.641 35.5768C113.92 35.3107 114.263 35.0991 114.669 34.942C115.074 34.7806 115.539 34.6998 116.063 34.6998C116.355 34.6998 116.638 34.7238 116.913 34.7718C117.193 34.8155 117.456 34.8831 117.705 34.9747C117.954 35.062 118.185 35.1689 118.399 35.2954C118.617 35.4176 118.811 35.5572 118.981 35.7142L118.432 36.7417Z" fill="#007EFA"/>
</g>
<g filter="url(#filter1_d)">
<rect x="31.0386" y="107.515" width="154.221" height="25.2521" rx="2.29481" fill="white"/>
<rect x="23.7039" y="106.663" width="169.393" height="27.7773" rx="2.5243" fill="white"/>
<mask id="mask1" mask-type="alpha" maskUnits="userSpaceOnUse" x="23" y="106" width="171" height="29">
<rect x="23.7039" y="106.663" width="169.393" height="27.7773" rx="2.5243" fill="white"/>
</mask>
<g mask="url(#mask1)">
<path fill-rule="evenodd" clip-rule="evenodd" d="M30.759 131.685C36.4121 131.685 40.9948 126.904 40.9948 121.007C40.9948 115.11 36.4121 110.329 30.759 110.329C25.1059 110.329 20.5232 115.11 20.5232 121.007C20.5232 126.904 25.1059 131.685 30.759 131.685Z" fill="#80A9FE" fill-opacity="0.22526"/>
<path d="M31.1903 117.684C31.4933 117.684 31.7659 117.728 32.0082 117.816C32.2536 117.901 32.4626 118.02 32.6353 118.175C32.8079 118.326 32.9397 118.505 33.0306 118.711C33.1245 118.917 33.1714 119.14 33.1714 119.379C33.1714 119.588 33.1472 119.773 33.0987 119.933C33.0533 120.091 32.9851 120.229 32.8942 120.347C32.8064 120.465 32.6974 120.565 32.5671 120.647C32.4399 120.729 32.2945 120.797 32.1309 120.851C32.5247 120.975 32.8185 121.165 33.0124 121.419C33.2062 121.674 33.3032 121.993 33.3032 122.378C33.3032 122.705 33.2426 122.994 33.1214 123.246C33.0003 123.497 32.8367 123.709 32.6307 123.882C32.4247 124.051 32.1854 124.18 31.9128 124.268C31.6432 124.356 31.3569 124.4 31.054 124.4C30.7239 124.4 30.4361 124.362 30.1907 124.286C29.9454 124.211 29.7318 124.098 29.5501 123.95C29.3683 123.802 29.2138 123.62 29.0866 123.405C28.9594 123.19 28.8503 122.941 28.7594 122.66L29.2547 122.455C29.3395 122.419 29.4259 122.401 29.5137 122.401C29.5925 122.401 29.6621 122.417 29.7227 122.451C29.7863 122.484 29.8348 122.532 29.8681 122.596C29.9226 122.702 29.9817 122.807 30.0453 122.91C30.112 123.012 30.1907 123.105 30.2816 123.187C30.3725 123.265 30.4785 123.331 30.5997 123.382C30.7239 123.431 30.8708 123.455 31.0404 123.455C31.2312 123.455 31.3978 123.424 31.5402 123.364C31.6826 123.3 31.8007 123.218 31.8946 123.119C31.9916 123.019 32.0627 122.908 32.1082 122.787C32.1566 122.663 32.1809 122.538 32.1809 122.414C32.1809 122.257 32.1642 122.114 32.1309 121.987C32.0976 121.857 32.0279 121.746 31.9219 121.655C31.8159 121.565 31.6629 121.493 31.463 121.442C31.2661 121.39 31.001 121.365 30.6678 121.365V120.565C30.9435 120.562 31.1722 120.536 31.3539 120.488C31.5357 120.439 31.6796 120.373 31.7856 120.288C31.8946 120.2 31.9704 120.095 32.0128 119.974C32.0552 119.853 32.0764 119.72 32.0764 119.574C32.0764 119.262 31.9916 119.028 31.8219 118.87C31.6523 118.71 31.4206 118.629 31.1267 118.629C30.8602 118.629 30.639 118.7 30.4633 118.843C30.2877 118.982 30.165 119.162 30.0953 119.384C30.059 119.499 30.009 119.582 29.9454 119.633C29.8818 119.682 29.7984 119.706 29.6955 119.706C29.647 119.706 29.5955 119.702 29.541 119.693L28.9503 119.588C28.9957 119.273 29.0836 118.997 29.2138 118.761C29.3441 118.522 29.5061 118.323 29.7 118.166C29.8969 118.005 30.1211 117.886 30.3725 117.807C30.6269 117.725 30.8995 117.684 31.1903 117.684Z" fill="#007EFA"/>
</g>
<path d="M55.707 122.916C55.3766 122.916 55.0594 122.868 54.7553 122.771C54.4557 122.669 54.2156 122.535 54.035 122.368C53.9689 122.306 53.9358 122.229 53.9358 122.136C53.9358 122.075 53.9534 122.022 53.9887 121.978C54.0239 121.929 54.0658 121.905 54.1143 121.905C54.1715 121.905 54.2332 121.929 54.2993 121.978C54.7091 122.295 55.1761 122.454 55.7004 122.454C56.0794 122.454 56.3702 122.381 56.5728 122.235C56.7755 122.09 56.8769 121.883 56.8769 121.614C56.8769 121.46 56.8284 121.337 56.7315 121.244C56.6345 121.147 56.5067 121.07 56.3481 121.013C56.1895 120.955 55.9758 120.896 55.707 120.834C55.3458 120.751 55.0483 120.662 54.8148 120.57C54.5857 120.477 54.3985 120.345 54.2531 120.173C54.1121 120.002 54.0416 119.777 54.0416 119.499C54.0416 119.235 54.1121 119.001 54.2531 118.799C54.3985 118.592 54.5989 118.433 54.8545 118.323C55.1144 118.208 55.4096 118.151 55.7401 118.151C56.0485 118.151 56.3349 118.199 56.5993 118.296C56.868 118.389 57.0927 118.523 57.2734 118.7C57.3439 118.77 57.3791 118.847 57.3791 118.931C57.3791 118.993 57.3615 119.048 57.3263 119.096C57.291 119.14 57.2492 119.162 57.2007 119.162C57.1522 119.162 57.0883 119.138 57.009 119.09C56.7931 118.913 56.5927 118.79 56.4076 118.719C56.2226 118.649 56 118.614 55.7401 118.614C55.3744 118.614 55.0902 118.691 54.8875 118.845C54.6848 118.995 54.5835 119.206 54.5835 119.479C54.5835 119.713 54.6716 119.889 54.8479 120.008C55.0285 120.123 55.3039 120.224 55.674 120.312C56.075 120.409 56.39 120.499 56.6191 120.583C56.8482 120.662 57.0377 120.784 57.1875 120.947C57.3417 121.11 57.4188 121.328 57.4188 121.601C57.4188 121.861 57.3461 122.09 57.2007 122.288C57.0597 122.487 56.8592 122.641 56.5993 122.751C56.3393 122.861 56.0419 122.916 55.707 122.916ZM60.8039 119.579C60.8876 119.579 60.9537 119.603 61.0021 119.651C61.0506 119.7 61.0748 119.764 61.0748 119.843V123.828C61.0748 123.903 61.0506 123.965 61.0021 124.013C60.9537 124.062 60.8876 124.086 60.8039 124.086C60.7202 124.086 60.6541 124.062 60.6056 124.013C60.5615 123.969 60.5395 123.908 60.5395 123.828V122.275C60.4426 122.478 60.2994 122.634 60.1099 122.744C59.9249 122.854 59.7068 122.91 59.4556 122.91C59.1692 122.91 58.9181 122.841 58.7022 122.705C58.4907 122.568 58.3255 122.376 58.2065 122.13C58.0876 121.879 58.0281 121.586 58.0281 121.251C58.0281 120.916 58.0876 120.623 58.2065 120.372C58.3255 120.116 58.4929 119.918 58.7088 119.777C58.9247 119.636 59.1736 119.565 59.4556 119.565C59.7068 119.565 59.9249 119.62 60.1099 119.731C60.2994 119.841 60.4426 119.997 60.5395 120.2V119.843C60.5395 119.764 60.5615 119.7 60.6056 119.651C60.6541 119.603 60.7202 119.579 60.8039 119.579ZM59.5614 122.467C59.8742 122.467 60.1143 122.361 60.2818 122.15C60.4536 121.934 60.5395 121.63 60.5395 121.237C60.5395 120.845 60.4536 120.543 60.2818 120.332C60.1143 120.121 59.8742 120.015 59.5614 120.015C59.2485 120.015 59.004 120.125 58.8278 120.345C58.6559 120.561 58.57 120.863 58.57 121.251C58.57 121.638 58.6559 121.938 58.8278 122.15C59.004 122.361 59.2485 122.467 59.5614 122.467ZM64.5118 119.579C64.5955 119.579 64.6594 119.603 64.7034 119.651C64.7519 119.7 64.7761 119.764 64.7761 119.843V122.639C64.7761 122.713 64.7519 122.775 64.7034 122.824C64.6594 122.872 64.5955 122.896 64.5118 122.896C64.4325 122.896 64.3686 122.874 64.3201 122.83C64.276 122.782 64.254 122.72 64.254 122.645V122.315C64.1527 122.509 64.0095 122.656 63.8244 122.758C63.6438 122.859 63.4389 122.91 63.2098 122.91C62.8265 122.91 62.5379 122.804 62.344 122.592C62.1501 122.376 62.0532 122.059 62.0532 121.641V119.843C62.0532 119.764 62.0774 119.7 62.1259 119.651C62.1744 119.603 62.2405 119.579 62.3242 119.579C62.4079 119.579 62.4718 119.603 62.5158 119.651C62.5643 119.7 62.5885 119.764 62.5885 119.843V121.627C62.5885 121.914 62.6458 122.125 62.7604 122.262C62.8749 122.394 63.0556 122.46 63.3023 122.46C63.5843 122.46 63.8112 122.37 63.983 122.189C64.1549 122.004 64.2408 121.762 64.2408 121.462V119.843C64.2408 119.764 64.265 119.7 64.3135 119.651C64.362 119.603 64.4281 119.579 64.5118 119.579ZM67.0863 119.565C67.8926 119.565 68.2958 119.988 68.2958 120.834V122.632C68.2958 122.711 68.2715 122.775 68.2231 122.824C68.179 122.872 68.1173 122.896 68.038 122.896C67.9587 122.896 67.8948 122.872 67.8463 122.824C67.7979 122.775 67.7736 122.711 67.7736 122.632V122.315C67.6899 122.504 67.5622 122.652 67.3903 122.758C67.2185 122.859 67.0202 122.91 66.7955 122.91C66.5884 122.91 66.3968 122.868 66.2205 122.784C66.0487 122.7 65.9121 122.583 65.8108 122.434C65.7094 122.284 65.6587 122.119 65.6587 121.938C65.6587 121.696 65.7204 121.508 65.8438 121.376C65.9672 121.24 66.1698 121.143 66.4518 121.085C66.7338 121.024 67.126 120.993 67.6282 120.993H67.7736V120.775C67.7736 120.51 67.7186 120.317 67.6084 120.193C67.5027 120.07 67.3286 120.008 67.0863 120.008C66.7867 120.008 66.4827 120.09 66.1743 120.253C66.0553 120.328 65.9716 120.365 65.9231 120.365C65.8702 120.365 65.8262 120.345 65.7909 120.306C65.7557 120.266 65.7381 120.215 65.7381 120.154C65.7381 120.092 65.7557 120.039 65.7909 119.995C65.8306 119.946 65.8923 119.898 65.976 119.85C66.1302 119.761 66.3042 119.693 66.4981 119.645C66.6964 119.592 66.8924 119.565 67.0863 119.565ZM66.8682 122.487C67.1326 122.487 67.3485 122.398 67.5159 122.222C67.6877 122.042 67.7736 121.81 67.7736 121.528V121.337H67.6547C67.267 121.337 66.9717 121.354 66.7691 121.389C66.5664 121.42 66.421 121.475 66.3329 121.555C66.2492 121.63 66.2073 121.742 66.2073 121.892C66.2073 122.064 66.269 122.207 66.3924 122.321C66.5201 122.431 66.6787 122.487 66.8682 122.487ZM70.8685 119.579C71.0536 119.565 71.1461 119.64 71.1461 119.803C71.1461 119.874 71.1263 119.931 71.0866 119.975C71.0469 120.015 70.9787 120.039 70.8817 120.048L70.6834 120.068C70.3882 120.094 70.1679 120.2 70.0225 120.385C69.8815 120.566 69.811 120.779 69.811 121.026V122.632C69.811 122.72 69.7868 122.786 69.7383 122.83C69.6899 122.874 69.626 122.896 69.5467 122.896C69.4674 122.896 69.4013 122.874 69.3484 122.83C69.2999 122.782 69.2757 122.716 69.2757 122.632V119.843C69.2757 119.759 69.3022 119.695 69.355 119.651C69.4079 119.603 69.4718 119.579 69.5467 119.579C69.6172 119.579 69.6767 119.603 69.7251 119.651C69.7736 119.695 69.7978 119.757 69.7978 119.836V120.206C69.8904 120.013 70.0203 119.865 70.1878 119.764C70.3596 119.662 70.5557 119.603 70.776 119.585L70.8685 119.579ZM74.0327 122.116C74.0812 122.116 74.1231 122.136 74.1583 122.176C74.1936 122.216 74.2112 122.266 74.2112 122.328C74.2112 122.438 74.1341 122.539 73.9799 122.632C73.8213 122.724 73.6538 122.795 73.4776 122.843C73.3013 122.888 73.1295 122.91 72.9621 122.91C72.4642 122.91 72.0699 122.762 71.7791 122.467C71.4927 122.172 71.3495 121.764 71.3495 121.244C71.3495 120.914 71.4134 120.623 71.5411 120.372C71.6689 120.116 71.8473 119.918 72.0765 119.777C72.31 119.636 72.5743 119.565 72.8695 119.565C73.2881 119.565 73.6208 119.702 73.8675 119.975C74.1143 120.248 74.2376 120.618 74.2376 121.085C74.2376 121.174 74.22 121.237 74.1848 121.277C74.1495 121.317 74.0922 121.337 74.0129 121.337H71.8848C71.9245 122.094 72.2835 122.473 72.9621 122.473C73.1339 122.473 73.2815 122.451 73.4049 122.407C73.5283 122.359 73.6604 122.295 73.8014 122.216C73.916 122.15 73.9931 122.116 74.0327 122.116ZM72.8762 119.982C72.5942 119.982 72.3673 120.07 72.1954 120.246C72.028 120.422 71.9289 120.671 71.898 120.993H73.7684C73.7596 120.667 73.6781 120.418 73.5238 120.246C73.3696 120.07 73.1537 119.982 72.8762 119.982ZM80.3653 122.526C80.3961 122.575 80.4115 122.625 80.4115 122.678C80.4115 122.744 80.3851 122.799 80.3322 122.843C80.2837 122.883 80.2265 122.903 80.1604 122.903C80.059 122.903 79.9797 122.859 79.9225 122.771L79.0368 121.37C78.9223 121.189 78.8033 121.066 78.6799 121C78.5566 120.929 78.3891 120.894 78.1777 120.894H77.3449V122.619C77.3449 122.702 77.3207 122.771 77.2722 122.824C77.2238 122.872 77.1599 122.896 77.0806 122.896C76.9968 122.896 76.9307 122.872 76.8823 122.824C76.8338 122.771 76.8096 122.702 76.8096 122.619V118.468C76.8096 118.389 76.8338 118.325 76.8823 118.277C76.9352 118.228 77.0034 118.204 77.0872 118.204H78.7262C79.2329 118.204 79.6184 118.316 79.8828 118.541C80.1516 118.766 80.286 119.096 80.286 119.532C80.286 119.902 80.178 120.2 79.9621 120.425C79.7506 120.649 79.4466 120.786 79.0501 120.834C79.1602 120.87 79.2593 120.927 79.3475 121.006C79.4356 121.085 79.5237 121.196 79.6118 121.337L80.3653 122.526ZM78.6799 120.444C79.0412 120.444 79.31 120.369 79.4863 120.22C79.6669 120.07 79.7572 119.843 79.7572 119.539C79.7572 119.239 79.6691 119.017 79.4929 118.871C79.3166 118.726 79.0456 118.653 78.6799 118.653H77.3449V120.444H78.6799ZM82.5961 122.91C82.2921 122.91 82.0233 122.841 81.7898 122.705C81.5607 122.568 81.3823 122.374 81.2545 122.123C81.1311 121.868 81.0694 121.572 81.0694 121.237C81.0694 120.903 81.1311 120.61 81.2545 120.358C81.3823 120.103 81.5607 119.907 81.7898 119.77C82.0233 119.634 82.2921 119.565 82.5961 119.565C82.9001 119.565 83.1689 119.634 83.4024 119.77C83.636 119.907 83.8144 120.103 83.9378 120.358C84.0655 120.61 84.1294 120.903 84.1294 121.237C84.1294 121.572 84.0655 121.868 83.9378 122.123C83.8144 122.374 83.636 122.568 83.4024 122.705C83.1689 122.841 82.9001 122.91 82.5961 122.91ZM82.5961 122.467C82.9134 122.467 83.1557 122.363 83.3231 122.156C83.495 121.945 83.5809 121.638 83.5809 121.237C83.5809 120.845 83.495 120.543 83.3231 120.332C83.1513 120.116 82.909 120.008 82.5961 120.008C82.2833 120.008 82.041 120.116 81.8691 120.332C81.6973 120.543 81.6114 120.845 81.6114 121.237C81.6114 121.634 81.6951 121.938 81.8625 122.15C82.0344 122.361 82.2789 122.467 82.5961 122.467ZM86.2621 122.91C85.9581 122.91 85.6893 122.841 85.4558 122.705C85.2267 122.568 85.0482 122.374 84.9205 122.123C84.7971 121.868 84.7354 121.572 84.7354 121.237C84.7354 120.903 84.7971 120.61 84.9205 120.358C85.0482 120.103 85.2267 119.907 85.4558 119.77C85.6893 119.634 85.9581 119.565 86.2621 119.565C86.5661 119.565 86.8349 119.634 87.0684 119.77C87.3019 119.907 87.4804 120.103 87.6037 120.358C87.7315 120.61 87.7954 120.903 87.7954 121.237C87.7954 121.572 87.7315 121.868 87.6037 122.123C87.4804 122.374 87.3019 122.568 87.0684 122.705C86.8349 122.841 86.5661 122.91 86.2621 122.91ZM86.2621 122.467C86.5793 122.467 86.8217 122.363 86.9891 122.156C87.1609 121.945 87.2468 121.638 87.2468 121.237C87.2468 120.845 87.1609 120.543 86.9891 120.332C86.8173 120.116 86.5749 120.008 86.2621 120.008C85.9493 120.008 85.7069 120.116 85.5351 120.332C85.3633 120.543 85.2773 120.845 85.2773 121.237C85.2773 121.634 85.3611 121.938 85.5285 122.15C85.7003 122.361 85.9449 122.467 86.2621 122.467ZM90.0736 122.473C90.2278 122.487 90.3049 122.557 90.3049 122.685C90.3049 122.76 90.2763 122.817 90.219 122.857C90.1661 122.892 90.0846 122.905 89.9745 122.896L89.796 122.883C89.4435 122.857 89.1836 122.751 89.0162 122.566C88.8487 122.381 88.765 122.101 88.765 121.727V120.068H88.3222C88.2473 120.068 88.1878 120.05 88.1438 120.015C88.1041 119.975 88.0843 119.924 88.0843 119.863C88.0843 119.797 88.1041 119.744 88.1438 119.704C88.1878 119.664 88.2473 119.645 88.3222 119.645H88.765V118.898C88.765 118.814 88.7893 118.75 88.8377 118.706C88.8862 118.658 88.9523 118.633 89.036 118.633C89.1153 118.633 89.1792 118.658 89.2277 118.706C89.2761 118.75 89.3004 118.814 89.3004 118.898V119.645H90.034C90.1045 119.645 90.1595 119.664 90.1992 119.704C90.2432 119.744 90.2653 119.797 90.2653 119.863C90.2653 119.924 90.2432 119.975 90.1992 120.015C90.1595 120.05 90.1045 120.068 90.034 120.068H89.3004V121.753C89.3004 121.995 89.3488 122.172 89.4458 122.282C89.5471 122.387 89.6969 122.447 89.8952 122.46L90.0736 122.473Z" fill="#333333"/>
</g>
<g filter="url(#filter2_d)">
<rect x="22.3506" y="82.0156" width="171.785" height="28.0584" rx="2.29481" fill="white"/>
<rect x="22.3506" y="82.0156" width="171.785" height="28.0584" rx="2.29481" fill="white"/>
<mask id="mask2" mask-type="alpha" maskUnits="userSpaceOnUse" x="22" y="82" width="173" height="29">
<rect x="22.3506" y="82.0156" width="171.785" height="28.0584" rx="2.29481" fill="white"/>
</mask>
<g mask="url(#mask2)">
<path fill-rule="evenodd" clip-rule="evenodd" d="M29.9292 107.291C35.8859 107.291 40.7148 102.462 40.7148 96.5054C40.7148 90.5486 35.8859 85.7197 29.9292 85.7197C23.9724 85.7197 19.1436 90.5486 19.1436 96.5054C19.1436 102.462 23.9724 107.291 29.9292 107.291Z" fill="#80A9FE" fill-opacity="0.22526"/>
<path d="M30.2592 93.0585C30.5652 93.0585 30.8452 93.1044 31.0991 93.1962C31.3531 93.2849 31.5703 93.4119 31.7508 93.5771C31.9314 93.7424 32.0721 93.9413 32.1731 94.1738C32.2741 94.4063 32.3245 94.6649 32.3245 94.9494C32.3245 95.1942 32.2878 95.4206 32.2144 95.6287C32.144 95.8368 32.0476 96.0357 31.9252 96.2254C31.8059 96.4151 31.6652 96.5987 31.503 96.7761C31.3408 96.9536 31.171 97.1341 30.9936 97.3177L29.4973 98.846C29.6442 98.8032 29.788 98.7711 29.9288 98.7497C30.0695 98.7252 30.2041 98.7129 30.3326 98.7129H32.0354C32.1578 98.7129 32.2542 98.7481 32.3245 98.8185C32.398 98.8858 32.4347 98.9761 32.4347 99.0893V99.7686H27.8818V99.3922C27.8818 99.3157 27.8971 99.2362 27.9277 99.1535C27.9613 99.0709 28.0134 98.9944 28.0837 98.9241L30.0986 96.9046C30.2669 96.7333 30.4168 96.5696 30.5484 96.4135C30.683 96.2575 30.7947 96.103 30.8834 95.95C30.9752 95.797 31.044 95.6425 31.0899 95.4864C31.1389 95.3273 31.1634 95.1606 31.1634 94.9862C31.1634 94.8271 31.1404 94.6878 31.0945 94.5685C31.0486 94.4461 30.9828 94.3436 30.8972 94.261C30.8115 94.1784 30.709 94.1172 30.5897 94.0774C30.4734 94.0346 30.3418 94.0132 30.195 94.0132C29.9226 94.0132 29.6977 94.082 29.5203 94.2197C29.3459 94.3574 29.2235 94.5425 29.1531 94.775C29.1195 94.8913 29.069 94.9755 29.0017 95.0275C28.9343 95.0764 28.8487 95.1009 28.7446 95.1009C28.6987 95.1009 28.6483 95.0963 28.5932 95.0871L27.9965 94.9816C28.0424 94.6634 28.1312 94.3849 28.2627 94.1463C28.3943 93.9045 28.558 93.7041 28.7538 93.545C28.9527 93.3829 29.1791 93.262 29.4331 93.1824C29.6901 93.0998 29.9655 93.0585 30.2592 93.0585Z" fill="#007EFA"/>
<path d="M53.1544 98.7994C53.174 98.8386 53.1838 98.8802 53.1838 98.9242C53.1838 98.9977 53.1544 99.0589 53.0957 99.1078C53.0418 99.1568 52.9757 99.1812 52.8974 99.1812C52.775 99.1812 52.6893 99.1225 52.6404 99.005L52.119 97.8154H49.3505L48.8218 99.005C48.7729 99.1225 48.6872 99.1812 48.5648 99.1812C48.4865 99.1812 48.4179 99.1568 48.3592 99.1078C48.3004 99.054 48.2711 98.9903 48.2711 98.9169C48.2711 98.8777 48.2809 98.8386 48.3004 98.7994L50.4007 94.129C50.43 94.0604 50.4741 94.009 50.5328 93.9748C50.5916 93.9405 50.6552 93.9234 50.7238 93.9234C50.7972 93.9234 50.8633 93.943 50.922 93.9821C50.9808 94.0164 51.0248 94.0653 51.0542 94.129L53.1544 98.7994ZM49.5708 97.316H51.8987L50.7311 94.6797L49.5708 97.316ZM56.8156 93.9307C56.9086 93.9307 56.982 93.9576 57.0359 94.0115C57.0897 94.0653 57.1167 94.1339 57.1167 94.2171V98.8875C57.1167 98.9756 57.0897 99.0466 57.0359 99.1005C56.982 99.1543 56.9086 99.1812 56.8156 99.1812C56.7226 99.1812 56.6491 99.1543 56.5953 99.1005C56.5463 99.0466 56.5218 98.9756 56.5218 98.8875V98.491C56.4141 98.7162 56.255 98.89 56.0445 99.0123C55.8389 99.1347 55.5966 99.1959 55.3175 99.1959C55.0042 99.1959 54.7276 99.1176 54.4877 98.9609C54.2478 98.8043 54.0618 98.5864 53.9296 98.3074C53.7974 98.0234 53.7313 97.6954 53.7313 97.3234C53.7313 96.9562 53.7974 96.6331 53.9296 96.354C54.0618 96.075 54.2478 95.8596 54.4877 95.7078C54.7276 95.5561 55.0042 95.4802 55.3175 95.4802C55.5966 95.4802 55.8389 95.5414 56.0445 95.6638C56.255 95.7861 56.4141 95.9599 56.5218 96.1851V94.2171C56.5218 94.129 56.5463 94.0604 56.5953 94.0115C56.6491 93.9576 56.7226 93.9307 56.8156 93.9307ZM55.435 98.7039C55.7826 98.7039 56.0494 98.5864 56.2354 98.3514C56.4264 98.1116 56.5218 97.7738 56.5218 97.3381C56.5218 96.9023 56.4264 96.567 56.2354 96.332C56.0494 96.097 55.7826 95.9795 55.435 95.9795C55.0874 95.9795 54.8157 96.097 54.6199 96.332C54.429 96.567 54.3335 96.8974 54.3335 97.3234C54.3335 97.7591 54.429 98.0993 54.6199 98.3441C54.8157 98.584 55.0874 98.7039 55.435 98.7039ZM61.0897 93.9307C61.1827 93.9307 61.2561 93.9576 61.31 94.0115C61.3638 94.0653 61.3907 94.1339 61.3907 94.2171V98.8875C61.3907 98.9756 61.3638 99.0466 61.31 99.1005C61.2561 99.1543 61.1827 99.1812 61.0897 99.1812C60.9966 99.1812 60.9232 99.1543 60.8694 99.1005C60.8204 99.0466 60.7959 98.9756 60.7959 98.8875V98.491C60.6882 98.7162 60.5291 98.89 60.3186 99.0123C60.113 99.1347 59.8707 99.1959 59.5916 99.1959C59.2783 99.1959 59.0017 99.1176 58.7618 98.9609C58.5219 98.8043 58.3359 98.5864 58.2037 98.3074C58.0715 98.0234 58.0054 97.6954 58.0054 97.3234C58.0054 96.9562 58.0715 96.6331 58.2037 96.354C58.3359 96.075 58.5219 95.8596 58.7618 95.7078C59.0017 95.5561 59.2783 95.4802 59.5916 95.4802C59.8707 95.4802 60.113 95.5414 60.3186 95.6638C60.5291 95.7861 60.6882 95.9599 60.7959 96.1851V94.2171C60.7959 94.129 60.8204 94.0604 60.8694 94.0115C60.9232 93.9576 60.9966 93.9307 61.0897 93.9307ZM59.7091 98.7039C60.0567 98.7039 60.3235 98.5864 60.5095 98.3514C60.7005 98.1116 60.7959 97.7738 60.7959 97.3381C60.7959 96.9023 60.7005 96.567 60.5095 96.332C60.3235 96.097 60.0567 95.9795 59.7091 95.9795C59.3615 95.9795 59.0898 96.097 58.894 96.332C58.7031 96.567 58.6076 96.8974 58.6076 97.3234C58.6076 97.7591 58.7031 98.0993 58.894 98.3441C59.0898 98.584 59.3615 98.7039 59.7091 98.7039ZM66.0306 99.1812C65.9376 99.1812 65.8617 99.1543 65.803 99.1005C65.7491 99.0417 65.7222 98.9658 65.7222 98.8728V94.4815H64.1434C64.0553 94.4815 63.9867 94.4594 63.9378 94.4154C63.8888 94.3713 63.8643 94.3077 63.8643 94.2245C63.8643 94.1412 63.8888 94.0776 63.9378 94.0335C63.9867 93.9895 64.0553 93.9674 64.1434 93.9674H67.9105C67.9987 93.9674 68.0672 93.9895 68.1162 94.0335C68.1651 94.0776 68.1896 94.1412 68.1896 94.2245C68.1896 94.3077 68.1651 94.3713 68.1162 94.4154C68.0672 94.4594 67.9987 94.4815 67.9105 94.4815H66.3317V98.8728C66.3317 98.9658 66.3048 99.0417 66.2509 99.1005C66.1971 99.1543 66.1236 99.1812 66.0306 99.1812ZM73.1274 95.6858C73.1764 95.5683 73.2571 95.5095 73.3697 95.5095C73.4432 95.5095 73.5093 95.534 73.568 95.583C73.6268 95.6319 73.6561 95.6931 73.6561 95.7666C73.6561 95.8008 73.6488 95.8376 73.6341 95.8767L72.4151 98.9609C72.3857 99.0246 72.3417 99.076 72.2829 99.1152C72.2291 99.1494 72.1679 99.1666 72.0993 99.1666C72.0357 99.1666 71.9745 99.1494 71.9157 99.1152C71.8619 99.076 71.8203 99.0246 71.7909 98.9609L70.7775 96.3834L69.7715 98.9609C69.747 99.0246 69.7054 99.076 69.6466 99.1152C69.5879 99.1494 69.5242 99.1666 69.4557 99.1666C69.3921 99.1666 69.3309 99.1494 69.2721 99.1152C69.2134 99.076 69.1693 99.0246 69.1399 98.9609L67.9209 95.8841C67.9062 95.8449 67.8989 95.8106 67.8989 95.7813C67.8989 95.7029 67.9307 95.6368 67.9944 95.583C68.0629 95.5291 68.1363 95.5022 68.2147 95.5022C68.3322 95.5022 68.4154 95.5609 68.4643 95.6784L69.4704 98.3882L70.5058 95.7005C70.5352 95.6368 70.5743 95.5879 70.6233 95.5536C70.6771 95.5193 70.7334 95.5022 70.7922 95.5022C70.8558 95.5022 70.9121 95.5193 70.9611 95.5536C71.0149 95.5879 71.0541 95.6368 71.0786 95.7005L72.114 98.3808L73.1274 95.6858ZM75.8587 99.1959C75.5209 99.1959 75.2223 99.1201 74.9628 98.9683C74.7082 98.8165 74.5099 98.6011 74.368 98.3221C74.2309 98.0381 74.1624 97.7101 74.1624 97.3381C74.1624 96.966 74.2309 96.6404 74.368 96.3614C74.5099 96.0774 74.7082 95.8596 74.9628 95.7078C75.2223 95.5561 75.5209 95.4802 75.8587 95.4802C76.1965 95.4802 76.4951 95.5561 76.7546 95.7078C77.014 95.8596 77.2123 96.0774 77.3494 96.3614C77.4914 96.6404 77.5624 96.966 77.5624 97.3381C77.5624 97.7101 77.4914 98.0381 77.3494 98.3221C77.2123 98.6011 77.014 98.8165 76.7546 98.9683C76.4951 99.1201 76.1965 99.1959 75.8587 99.1959ZM75.8587 98.7039C76.2112 98.7039 76.4804 98.5889 76.6665 98.3588C76.8574 98.1238 76.9529 97.7836 76.9529 97.3381C76.9529 96.9023 76.8574 96.567 76.6665 96.332C76.4755 96.0921 76.2063 95.9722 75.8587 95.9722C75.5111 95.9722 75.2418 96.0921 75.0509 96.332C74.86 96.567 74.7645 96.9023 74.7645 97.3381C74.7645 97.7787 74.8575 98.1165 75.0436 98.3514C75.2345 98.5864 75.5062 98.7039 75.8587 98.7039ZM84.2999 93.9307C84.388 93.9307 84.4566 93.9601 84.5055 94.0188C84.5545 94.0727 84.579 94.1461 84.579 94.2391V98.8728C84.579 98.9658 84.5521 99.0417 84.4982 99.1005C84.4492 99.1543 84.3783 99.1812 84.2852 99.1812C84.1922 99.1812 84.1114 99.1396 84.0429 99.0564L80.9954 94.9808V98.8728C80.9954 98.9658 80.9685 99.0417 80.9146 99.1005C80.8657 99.1543 80.7971 99.1812 80.709 99.1812C80.6209 99.1812 80.5523 99.1543 80.5034 99.1005C80.4544 99.0417 80.43 98.9658 80.43 98.8728V94.2391C80.43 94.1461 80.4544 94.0727 80.5034 94.0188C80.5572 93.9601 80.6307 93.9307 80.7237 93.9307C80.8216 93.9307 80.9048 93.9723 80.9734 94.0556L84.0135 98.1311V94.2391C84.0135 94.1461 84.038 94.0727 84.087 94.0188C84.1408 93.9601 84.2118 93.9307 84.2999 93.9307ZM88.4876 95.4949C88.5806 95.4949 88.6516 95.5218 88.7005 95.5756C88.7544 95.6295 88.7813 95.7005 88.7813 95.7886V98.8949C88.7813 98.9781 88.7544 99.0466 88.7005 99.1005C88.6516 99.1543 88.5806 99.1812 88.4876 99.1812C88.3994 99.1812 88.3285 99.1568 88.2746 99.1078C88.2256 99.054 88.2012 98.9854 88.2012 98.9022V98.535C88.0886 98.7504 87.9295 98.9144 87.7238 99.027C87.5231 99.1396 87.2955 99.1959 87.0409 99.1959C86.615 99.1959 86.2943 99.0784 86.0789 98.8435C85.8635 98.6036 85.7558 98.2511 85.7558 97.786V95.7886C85.7558 95.7005 85.7827 95.6295 85.8366 95.5756C85.8904 95.5218 85.9639 95.4949 86.0569 95.4949C86.1499 95.4949 86.2209 95.5218 86.2699 95.5756C86.3237 95.6295 86.3506 95.7005 86.3506 95.7886V97.7713C86.3506 98.0895 86.4143 98.3245 86.5416 98.4763C86.6688 98.6231 86.8696 98.6966 87.1437 98.6966C87.457 98.6966 87.7092 98.5962 87.9001 98.3955C88.091 98.1899 88.1865 97.9206 88.1865 97.5877V95.7886C88.1865 95.7005 88.2134 95.6295 88.2673 95.5756C88.3211 95.5218 88.3945 95.4949 88.4876 95.4949ZM93.867 95.4802C94.66 95.4802 95.0566 95.9526 95.0566 96.8974V98.8875C95.0566 98.9805 95.0297 99.054 94.9758 99.1078C94.922 99.1568 94.851 99.1812 94.7628 99.1812C94.6747 99.1812 94.6013 99.1568 94.5425 99.1078C94.4887 99.054 94.4618 98.9805 94.4618 98.8875V96.9121C94.4618 96.5841 94.403 96.3467 94.2855 96.1998C94.168 96.053 93.9844 95.9795 93.7348 95.9795C93.4361 95.9795 93.2011 96.0799 93.0298 96.2806C92.8585 96.4813 92.7728 96.753 92.7728 97.0957V98.8875C92.7728 98.9805 92.7434 99.054 92.6847 99.1078C92.6308 99.1568 92.5598 99.1812 92.4717 99.1812C92.3836 99.1812 92.3126 99.1568 92.2587 99.1078C92.2049 99.054 92.178 98.9805 92.178 98.8875V96.9121C92.178 96.5841 92.1192 96.3467 92.0017 96.1998C91.8842 96.053 91.6982 95.9795 91.4436 95.9795C91.1499 95.9795 90.9149 96.0799 90.7387 96.2806C90.5673 96.4813 90.4816 96.753 90.4816 97.0957V98.8875C90.4816 98.9805 90.4547 99.054 90.4009 99.1078C90.347 99.1568 90.276 99.1812 90.1879 99.1812C90.0998 99.1812 90.0264 99.1568 89.9676 99.1078C89.9138 99.054 89.8868 98.9805 89.8868 98.8875V95.7886C89.8868 95.7005 89.9138 95.6295 89.9676 95.5756C90.0264 95.5218 90.0998 95.4949 90.1879 95.4949C90.2711 95.4949 90.3397 95.5218 90.3935 95.5756C90.4474 95.6246 90.4743 95.6931 90.4743 95.7813V96.1337C90.582 95.9232 90.7313 95.7617 90.9222 95.6491C91.1132 95.5365 91.3335 95.4802 91.5832 95.4802C92.1413 95.4802 92.506 95.7152 92.6773 96.1851C92.7801 95.9697 92.9368 95.7984 93.1473 95.6711C93.3578 95.5438 93.5977 95.4802 93.867 95.4802ZM97.9393 95.4802C98.2526 95.4802 98.5292 95.5561 98.7691 95.7078C99.009 95.8596 99.1951 96.075 99.3272 96.354C99.4594 96.6331 99.5255 96.9562 99.5255 97.3234C99.5255 97.6954 99.4594 98.0234 99.3272 98.3074C99.1951 98.5864 99.009 98.8043 98.7691 98.9609C98.5292 99.1176 98.2526 99.1959 97.9393 99.1959C97.6603 99.1959 97.4155 99.1347 97.205 99.0123C96.9994 98.89 96.8427 98.7162 96.735 98.491V98.8875C96.735 98.9756 96.7081 99.0466 96.6542 99.1005C96.6053 99.1543 96.5343 99.1812 96.4413 99.1812C96.3483 99.1812 96.2748 99.1543 96.221 99.1005C96.1671 99.0466 96.1402 98.9756 96.1402 98.8875V94.2171C96.1402 94.1339 96.1671 94.0653 96.221 94.0115C96.2748 93.9576 96.3483 93.9307 96.4413 93.9307C96.5343 93.9307 96.6053 93.9576 96.6542 94.0115C96.7081 94.0604 96.735 94.129 96.735 94.2171V96.1851C96.8427 95.9599 96.9994 95.7861 97.205 95.6638C97.4155 95.5414 97.6603 95.4802 97.9393 95.4802ZM97.8218 98.7039C98.1694 98.7039 98.4387 98.584 98.6296 98.3441C98.8205 98.0993 98.916 97.7591 98.916 97.3234C98.916 96.8974 98.8205 96.567 98.6296 96.332C98.4387 96.097 98.1694 95.9795 97.8218 95.9795C97.4742 95.9795 97.205 96.097 97.0141 96.332C96.828 96.567 96.735 96.9023 96.735 97.3381C96.735 97.7738 96.828 98.1116 97.0141 98.3514C97.205 98.5864 97.4742 98.7039 97.8218 98.7039ZM103.183 98.3147C103.237 98.3147 103.283 98.3368 103.322 98.3808C103.361 98.4249 103.381 98.4812 103.381 98.5497C103.381 98.6721 103.295 98.7847 103.124 98.8875C102.948 98.9903 102.762 99.0686 102.566 99.1225C102.37 99.1715 102.179 99.1959 101.993 99.1959C101.44 99.1959 101.002 99.0319 100.679 98.7039C100.36 98.3759 100.201 97.9231 100.201 97.3454C100.201 96.9782 100.272 96.6551 100.414 96.3761C100.556 96.0921 100.755 95.8718 101.009 95.7152C101.269 95.5585 101.562 95.4802 101.89 95.4802C102.355 95.4802 102.725 95.6319 102.999 95.9355C103.273 96.239 103.41 96.6502 103.41 97.1692C103.41 97.2671 103.391 97.3381 103.352 97.3821C103.312 97.4262 103.249 97.4482 103.161 97.4482H100.796C100.84 98.2902 101.239 98.7113 101.993 98.7113C102.184 98.7113 102.348 98.6868 102.485 98.6378C102.622 98.584 102.769 98.513 102.926 98.4249C103.053 98.3514 103.139 98.3147 103.183 98.3147ZM101.898 95.9428C101.584 95.9428 101.332 96.0407 101.141 96.2365C100.955 96.4324 100.845 96.709 100.811 97.0663H102.889C102.879 96.7041 102.789 96.4275 102.617 96.2365C102.446 96.0407 102.206 95.9428 101.898 95.9428ZM106.057 95.4949C106.262 95.4802 106.365 95.5634 106.365 95.7445C106.365 95.8229 106.343 95.8865 106.299 95.9355C106.255 95.9795 106.179 96.0064 106.071 96.0162L105.851 96.0383C105.523 96.0676 105.278 96.1851 105.117 96.3908C104.96 96.5915 104.882 96.8289 104.882 97.1031V98.8875C104.882 98.9854 104.855 99.0589 104.801 99.1078C104.747 99.1568 104.676 99.1812 104.588 99.1812C104.5 99.1812 104.426 99.1568 104.368 99.1078C104.314 99.054 104.287 98.9805 104.287 98.8875V95.7886C104.287 95.6956 104.316 95.6246 104.375 95.5756C104.434 95.5218 104.505 95.4949 104.588 95.4949C104.666 95.4949 104.732 95.5218 104.786 95.5756C104.84 95.6246 104.867 95.6931 104.867 95.7813V96.1925C104.97 95.9771 105.114 95.8131 105.3 95.7005C105.491 95.5879 105.709 95.5218 105.954 95.5022L106.057 95.4949ZM108.044 99.1959C107.819 99.1959 107.603 99.169 107.398 99.1152C107.197 99.0613 107.018 98.9854 106.862 98.8875C106.774 98.8288 106.71 98.7749 106.671 98.726C106.637 98.6721 106.619 98.6085 106.619 98.535C106.619 98.4714 106.637 98.42 106.671 98.3808C106.71 98.3368 106.759 98.3147 106.818 98.3147C106.876 98.3147 106.962 98.3514 107.075 98.4249C107.222 98.513 107.366 98.584 107.508 98.6378C107.655 98.6868 107.836 98.7113 108.051 98.7113C108.316 98.7113 108.521 98.6648 108.668 98.5717C108.815 98.4787 108.889 98.3441 108.889 98.1679C108.889 98.0602 108.862 97.9745 108.808 97.9108C108.754 97.8423 108.661 97.7836 108.529 97.7346C108.397 97.6807 108.203 97.6269 107.949 97.573C107.518 97.48 107.209 97.3552 107.023 97.1985C106.837 97.0419 106.744 96.8289 106.744 96.5597C106.744 96.3491 106.803 96.1631 106.921 96.0016C107.038 95.84 107.2 95.7127 107.405 95.6197C107.616 95.5267 107.853 95.4802 108.118 95.4802C108.308 95.4802 108.492 95.5071 108.668 95.5609C108.849 95.6099 109.009 95.6809 109.146 95.7739C109.312 95.8914 109.395 96.0138 109.395 96.1411C109.395 96.2047 109.376 96.2586 109.337 96.3026C109.297 96.3467 109.251 96.3687 109.197 96.3687C109.138 96.3687 109.05 96.3271 108.933 96.2439C108.796 96.1558 108.666 96.0872 108.543 96.0383C108.421 95.9893 108.269 95.9648 108.088 95.9648C107.858 95.9648 107.672 96.0162 107.53 96.119C107.393 96.2219 107.324 96.3589 107.324 96.5303C107.324 96.638 107.349 96.7261 107.398 96.7946C107.452 96.8583 107.537 96.917 107.655 96.9709C107.777 97.0198 107.951 97.0688 108.176 97.1178C108.509 97.1912 108.766 97.272 108.947 97.3601C109.133 97.4482 109.266 97.5559 109.344 97.6832C109.422 97.8105 109.461 97.972 109.461 98.1679C109.461 98.4763 109.332 98.726 109.072 98.9169C108.813 99.1029 108.47 99.1959 108.044 99.1959Z" fill="#333333"/>
</g>
</g>
<g filter="url(#filter3_d)">
<rect x="17.948" y="54.8174" width="180.185" height="29.5143" rx="2.29481" fill="#D8D8D8"/>
<mask id="mask3" mask-type="alpha" maskUnits="userSpaceOnUse" x="17" y="54" width="182" height="31">
<rect x="17.948" y="54.8174" width="180.185" height="29.5143" rx="2.29481" fill="white"/>
</mask>
<g mask="url(#mask3)">
<rect x="17.5039" y="54.8174" width="180.751" height="29.4616" fill="white"/>
<path d="M52.1432 66.9776C52.2409 66.9776 52.3154 67.0085 52.3668 67.0702C52.4234 67.1267 52.4516 67.2038 52.4516 67.3015V72.1669C52.4516 72.2645 52.4234 72.3442 52.3668 72.4059C52.3154 72.4624 52.2409 72.4907 52.1432 72.4907C52.0455 72.4907 51.9684 72.4624 51.9119 72.4059C51.8553 72.3442 51.8271 72.2645 51.8271 72.1669V69.9616H48.5732V72.1669C48.5732 72.2645 48.5449 72.3442 48.4884 72.4059C48.4318 72.4624 48.3547 72.4907 48.2571 72.4907C48.1594 72.4907 48.0823 72.4624 48.0258 72.4059C47.9744 72.3442 47.9487 72.2645 47.9487 72.1669V67.3015C47.9487 67.2038 47.9744 67.1267 48.0258 67.0702C48.0823 67.0085 48.1594 66.9776 48.2571 66.9776C48.3547 66.9776 48.4318 67.0085 48.4884 67.0702C48.5449 67.1267 48.5732 67.2038 48.5732 67.3015V69.4219H51.8271V67.3015C51.8271 67.2038 51.8553 67.1267 51.9119 67.0702C51.9684 67.0085 52.0455 66.9776 52.1432 66.9776ZM56.6062 71.5809C56.6627 71.5809 56.7116 71.604 56.7527 71.6502C56.7938 71.6965 56.8144 71.7556 56.8144 71.8276C56.8144 71.9561 56.7244 72.0743 56.5445 72.1823C56.3594 72.2902 56.1641 72.3725 55.9585 72.429C55.7529 72.4804 55.5524 72.5061 55.3571 72.5061C54.7762 72.5061 54.3161 72.3339 53.9769 71.9895C53.6428 71.6451 53.4757 71.1696 53.4757 70.5631C53.4757 70.1775 53.5502 69.8383 53.6993 69.5453C53.8484 69.2471 54.0566 69.0158 54.3239 68.8513C54.5963 68.6868 54.9047 68.6046 55.2491 68.6046C55.7375 68.6046 56.1256 68.7639 56.4134 69.0826C56.7013 69.4013 56.8452 69.8331 56.8452 70.378C56.8452 70.4808 56.8246 70.5553 56.7835 70.6016C56.7424 70.6479 56.6756 70.671 56.583 70.671H54.1002C54.1465 71.5552 54.5654 71.9972 55.3571 71.9972C55.5575 71.9972 55.7297 71.9715 55.8737 71.9201C56.0176 71.8636 56.1718 71.789 56.3363 71.6965C56.47 71.6194 56.5599 71.5809 56.6062 71.5809ZM55.2568 69.0903C54.9278 69.0903 54.6631 69.1931 54.4626 69.3988C54.2673 69.6044 54.1516 69.8948 54.1157 70.2701H56.2978C56.2875 69.8897 56.1924 69.5992 56.0125 69.3988C55.8326 69.1931 55.5807 69.0903 55.2568 69.0903ZM58.0816 72.4907C57.989 72.4907 57.9119 72.465 57.8502 72.4136C57.7937 72.3571 57.7654 72.2799 57.7654 72.1823V67.2861C57.7654 67.1884 57.7937 67.1139 57.8502 67.0625C57.9119 67.0059 57.989 66.9776 58.0816 66.9776C58.1689 66.9776 58.2409 67.0059 58.2974 67.0625C58.3591 67.1139 58.39 67.1884 58.39 67.2861V72.1823C58.39 72.2799 58.3591 72.3571 58.2974 72.4136C58.2409 72.465 58.1689 72.4907 58.0816 72.4907ZM59.8737 72.4907C59.7811 72.4907 59.704 72.465 59.6423 72.4136C59.5858 72.3571 59.5575 72.2799 59.5575 72.1823V67.2861C59.5575 67.1884 59.5858 67.1139 59.6423 67.0625C59.704 67.0059 59.7811 66.9776 59.8737 66.9776C59.961 66.9776 60.033 67.0059 60.0896 67.0625C60.1512 67.1139 60.1821 67.1884 60.1821 67.2861V72.1823C60.1821 72.2799 60.1512 72.3571 60.0896 72.4136C60.033 72.465 59.961 72.4907 59.8737 72.4907ZM62.9072 72.5061C62.5525 72.5061 62.2389 72.4264 61.9665 72.2671C61.6992 72.1077 61.491 71.8816 61.3419 71.5886C61.198 71.2904 61.126 70.946 61.126 70.5553C61.126 70.1647 61.198 69.8228 61.3419 69.5298C61.491 69.2317 61.6992 69.003 61.9665 68.8436C62.2389 68.6842 62.5525 68.6046 62.9072 68.6046C63.2619 68.6046 63.5754 68.6842 63.8479 68.8436C64.1203 69.003 64.3285 69.2317 64.4724 69.5298C64.6215 69.8228 64.696 70.1647 64.696 70.5553C64.696 70.946 64.6215 71.2904 64.4724 71.5886C64.3285 71.8816 64.1203 72.1077 63.8479 72.2671C63.5754 72.4264 63.2619 72.5061 62.9072 72.5061ZM62.9072 71.9895C63.2773 71.9895 63.56 71.8687 63.7553 71.6271C63.9558 71.3804 64.056 71.0231 64.056 70.5553C64.056 70.0979 63.9558 69.7457 63.7553 69.499C63.5549 69.2471 63.2721 69.1212 62.9072 69.1212C62.5422 69.1212 62.2595 69.2471 62.059 69.499C61.8585 69.7457 61.7583 70.0979 61.7583 70.5553C61.7583 71.018 61.856 71.3727 62.0513 71.6194C62.2518 71.8661 62.5371 71.9895 62.9072 71.9895ZM74.6542 67.1704C74.6748 67.1036 74.7108 67.0547 74.7622 67.0239C74.8136 66.9879 74.8701 66.9699 74.9318 66.9699C75.0141 66.9699 75.0835 66.9956 75.14 67.047C75.2017 67.0933 75.2325 67.1576 75.2325 67.2398C75.2325 67.2758 75.2248 67.3169 75.2094 67.3632L73.4668 72.2748C73.4411 72.3468 73.3974 72.4033 73.3357 72.4444C73.274 72.4804 73.2046 72.4984 73.1275 72.4984C73.0556 72.4984 72.9887 72.4804 72.9271 72.4444C72.8654 72.4033 72.8217 72.3468 72.796 72.2748L71.2847 68.0031L69.758 72.2748C69.7323 72.3468 69.6886 72.4033 69.6269 72.4444C69.5652 72.4804 69.4984 72.4984 69.4265 72.4984C69.3545 72.4984 69.2877 72.4804 69.226 72.4444C69.1643 72.4033 69.1206 72.3468 69.0949 72.2748L67.3446 67.3632C67.3292 67.322 67.3215 67.2835 67.3215 67.2475C67.3215 67.1653 67.3523 67.0984 67.414 67.047C67.4808 66.9956 67.5554 66.9699 67.6376 66.9699C67.6993 66.9699 67.7558 66.9879 67.8072 67.0239C67.8638 67.0547 67.9023 67.1036 67.9229 67.1704L69.4419 71.55L70.984 67.2167C71.0097 67.1396 71.0508 67.083 71.1074 67.047C71.1639 67.0059 71.2256 66.9854 71.2924 66.9854C71.3592 66.9854 71.4209 67.0059 71.4775 67.047C71.534 67.0882 71.5751 67.1473 71.6008 67.2244L73.1198 71.5654L74.6542 67.1704ZM77.229 72.5061C76.8743 72.5061 76.5607 72.4264 76.2883 72.2671C76.021 72.1077 75.8128 71.8816 75.6637 71.5886C75.5198 71.2904 75.4478 70.946 75.4478 70.5553C75.4478 70.1647 75.5198 69.8228 75.6637 69.5298C75.8128 69.2317 76.021 69.003 76.2883 68.8436C76.5607 68.6842 76.8743 68.6046 77.229 68.6046C77.5836 68.6046 77.8972 68.6842 78.1696 68.8436C78.4421 69.003 78.6503 69.2317 78.7942 69.5298C78.9433 69.8228 79.0178 70.1647 79.0178 70.5553C79.0178 70.946 78.9433 71.2904 78.7942 71.5886C78.6503 71.8816 78.4421 72.1077 78.1696 72.2671C77.8972 72.4264 77.5836 72.5061 77.229 72.5061ZM77.229 71.9895C77.5991 71.9895 77.8818 71.8687 78.0771 71.6271C78.2776 71.3804 78.3778 71.0231 78.3778 70.5553C78.3778 70.0979 78.2776 69.7457 78.0771 69.499C77.8766 69.2471 77.5939 69.1212 77.229 69.1212C76.864 69.1212 76.5813 69.2471 76.3808 69.499C76.1803 69.7457 76.0801 70.0979 76.0801 70.5553C76.0801 71.018 76.1777 71.3727 76.3731 71.6194C76.5736 71.8661 76.8588 71.9895 77.229 71.9895ZM81.8066 68.62C82.0225 68.6046 82.1305 68.692 82.1305 68.8822C82.1305 68.9644 82.1073 69.0312 82.0611 69.0826C82.0148 69.1289 81.9351 69.1572 81.822 69.1674L81.5907 69.1906C81.2463 69.2214 80.9893 69.3448 80.8197 69.5607C80.6552 69.7714 80.5729 70.0207 80.5729 70.3086V72.1823C80.5729 72.2851 80.5447 72.3622 80.4881 72.4136C80.4316 72.465 80.357 72.4907 80.2645 72.4907C80.172 72.4907 80.0949 72.465 80.0332 72.4136C79.9767 72.3571 79.9484 72.2799 79.9484 72.1823V68.9284C79.9484 68.8307 79.9792 68.7562 80.0409 68.7048C80.1026 68.6483 80.1771 68.62 80.2645 68.62C80.3468 68.62 80.4162 68.6483 80.4727 68.7048C80.5292 68.7562 80.5575 68.8282 80.5575 68.9207V69.3525C80.6655 69.1263 80.8171 68.9541 81.0124 68.8359C81.2129 68.7177 81.4417 68.6483 81.6987 68.6277L81.8066 68.62ZM82.9828 72.4907C82.8903 72.4907 82.8132 72.465 82.7515 72.4136C82.6949 72.3571 82.6667 72.2799 82.6667 72.1823V67.2861C82.6667 67.1884 82.6949 67.1139 82.7515 67.0625C82.8132 67.0059 82.8903 66.9776 82.9828 66.9776C83.0702 66.9776 83.1421 67.0059 83.1987 67.0625C83.2604 67.1139 83.2912 67.1884 83.2912 67.2861V72.1823C83.2912 72.2799 83.2604 72.3571 83.1987 72.4136C83.1421 72.465 83.0702 72.4907 82.9828 72.4907ZM87.4736 66.9776C87.5713 66.9776 87.6484 67.0059 87.7049 67.0625C87.7615 67.119 87.7897 67.191 87.7897 67.2784V72.1823C87.7897 72.2748 87.7615 72.3493 87.7049 72.4059C87.6484 72.4624 87.5713 72.4907 87.4736 72.4907C87.3759 72.4907 87.2988 72.4624 87.2423 72.4059C87.1909 72.3493 87.1652 72.2748 87.1652 72.1823V71.7659C87.0521 72.0024 86.885 72.1848 86.664 72.3134C86.4481 72.4419 86.1936 72.5061 85.9006 72.5061C85.5717 72.5061 85.2812 72.4239 85.0293 72.2594C84.7775 72.0949 84.5821 71.8661 84.4433 71.5731C84.3046 71.275 84.2352 70.9306 84.2352 70.5399C84.2352 70.1544 84.3046 69.8151 84.4433 69.5221C84.5821 69.2291 84.7775 69.003 85.0293 68.8436C85.2812 68.6842 85.5717 68.6046 85.9006 68.6046C86.1936 68.6046 86.4481 68.6688 86.664 68.7973C86.885 68.9258 87.0521 69.1083 87.1652 69.3448V67.2784C87.1652 67.1858 87.1909 67.1139 87.2423 67.0625C87.2988 67.0059 87.3759 66.9776 87.4736 66.9776ZM86.024 71.9895C86.389 71.9895 86.6691 71.8661 86.8645 71.6194C87.0649 71.3675 87.1652 71.0128 87.1652 70.5553C87.1652 70.0979 87.0649 69.7457 86.8645 69.499C86.6691 69.2523 86.389 69.1289 86.024 69.1289C85.659 69.1289 85.3738 69.2523 85.1681 69.499C84.9677 69.7457 84.8674 70.0927 84.8674 70.5399C84.8674 70.9974 84.9677 71.3547 85.1681 71.6117C85.3738 71.8636 85.659 71.9895 86.024 71.9895Z" fill="#333333"/>
</g>
</g>
<g filter="url(#filter4_d)">
<path fill-rule="evenodd" clip-rule="evenodd" d="M23.0476 87.9653C33.3745 87.9653 41.7461 79.5937 41.7461 69.2668C41.7461 58.94 33.3745 50.5684 23.0476 50.5684C12.7207 50.5684 4.34912 58.94 4.34912 69.2668C4.34912 79.5937 12.7207 87.9653 23.0476 87.9653Z" fill="#E3ECFF"/>
</g>
<path d="M20.2591 74.3139H22.639V68.0669C22.639 67.761 22.6475 67.4408 22.6645 67.1065L21.2621 68.2709C21.1714 68.3446 21.0807 68.3984 20.9901 68.4324C20.8994 68.4607 20.8116 68.4749 20.7266 68.4749C20.5793 68.4749 20.4461 68.4437 20.3271 68.3814C20.2138 68.3134 20.1288 68.2426 20.0722 68.1689L19.2392 67.064L23.0979 63.8258H25.2737V74.3139H27.3136V76.2178H20.2591V74.3139Z" fill="#007EFA"/>
<defs>
<filter id="filter0_d" x="4.39439" y="0.421634" width="215.967" height="228.121" filterUnits="userSpaceOnUse" color-interpolation-filters="sRGB">
<feFlood flood-opacity="0" result="BackgroundImageFix"/>
<feColorMatrix in="SourceAlpha" type="matrix" values="0 0 0 0 0 0 0 0 0 0 0 0 0 0 0 0 0 0 127 0"/>
<feOffset dx="5.09959" dy="9.34924"/>
<feGaussianBlur stdDeviation="14.0239"/>
<feColorMatrix type="matrix" values="0 0 0 0 0.17328 0 0 0 0 0.218395 0 0 0 0 0.262794 0 0 0 0.12 0"/>
<feBlend mode="normal" in2="BackgroundImageFix" result="effect1_dropShadow"/>
<feBlend mode="normal" in="SourceGraphic" in2="effect1_dropShadow" result="shape"/>
</filter>
<filter id="filter1_d" x="21.1541" y="105.813" width="174.493" height="32.8768" filterUnits="userSpaceOnUse" color-interpolation-filters="sRGB">
<feFlood flood-opacity="0" result="BackgroundImageFix"/>
<feColorMatrix in="SourceAlpha" type="matrix" values="0 0 0 0 0 0 0 0 0 0 0 0 0 0 0 0 0 0 127 0"/>
<feOffset dy="1.69986"/>
<feGaussianBlur stdDeviation="1.2749"/>
<feColorMatrix type="matrix" values="0 0 0 0 0 0 0 0 0 0 0 0 0 0 0 0 0 0 0.0777972 0"/>
<feBlend mode="normal" in2="BackgroundImageFix" result="effect1_dropShadow"/>
<feBlend mode="normal" in="SourceGraphic" in2="effect1_dropShadow" result="shape"/>
</filter>
<filter id="filter2_d" x="18.9509" y="81.1657" width="178.585" height="34.8578" filterUnits="userSpaceOnUse" color-interpolation-filters="sRGB">
<feFlood flood-opacity="0" result="BackgroundImageFix"/>
<feColorMatrix in="SourceAlpha" type="matrix" values="0 0 0 0 0 0 0 0 0 0 0 0 0 0 0 0 0 0 127 0"/>
<feOffset dy="2.54979"/>
<feGaussianBlur stdDeviation="1.69986"/>
<feColorMatrix type="matrix" values="0 0 0 0 0 0 0 0 0 0 0 0 0 0 0 0 0 0 0.08 0"/>
<feBlend mode="normal" in2="BackgroundImageFix" result="effect1_dropShadow"/>
<feBlend mode="normal" in="SourceGraphic" in2="effect1_dropShadow" result="shape"/>
</filter>
<filter id="filter3_d" x="14.5483" y="54.8174" width="186.985" height="36.3137" filterUnits="userSpaceOnUse" color-interpolation-filters="sRGB">
<feFlood flood-opacity="0" result="BackgroundImageFix"/>
<feColorMatrix in="SourceAlpha" type="matrix" values="0 0 0 0 0 0 0 0 0 0 0 0 0 0 0 0 0 0 127 0"/>
<feOffset dy="3.39972"/>
<feGaussianBlur stdDeviation="1.69986"/>
<feColorMatrix type="matrix" values="0 0 0 0 0 0 0 0 0 0 0 0 0 0 0 0 0 0 0.08 0"/>
<feBlend mode="normal" in2="BackgroundImageFix" result="effect1_dropShadow"/>
<feBlend mode="normal" in="SourceGraphic" in2="effect1_dropShadow" result="shape"/>
</filter>
<filter id="filter4_d" x="0.949397" y="50.5684" width="44.1964" height="44.1964" filterUnits="userSpaceOnUse" color-interpolation-filters="sRGB">
<feFlood flood-opacity="0" result="BackgroundImageFix"/>
<feColorMatrix in="SourceAlpha" type="matrix" values="0 0 0 0 0 0 0 0 0 0 0 0 0 0 0 0 0 0 127 0"/>
<feOffset dy="3.39972"/>
<feGaussianBlur stdDeviation="1.69986"/>
<feColorMatrix type="matrix" values="0 0 0 0 0 0 0 0 0 0 0 0 0 0 0 0 0 0 0.08 0"/>
<feBlend mode="normal" in2="BackgroundImageFix" result="effect1_dropShadow"/>
<feBlend mode="normal" in="SourceGraphic" in2="effect1_dropShadow" result="shape"/>
</filter>
</defs>
</svg>
